ISO-10303-21;
HEADER;
/* Generated by software containing ST-Developer
 * from STEP Tools, Inc. (www.steptools.com) 
 */

FILE_DESCRIPTION(
/* description */ (''),
/* implementation_level */ '2;1');

FILE_NAME(
/* name */ 'HTNC 2200W AIR COOLED.step',
/* time_stamp */ '2026-08-31T13:23:05+02:00',
/* author */ (''),
/* organization */ (''),
/* preprocessor_version */ 'ST-DEVELOPER v20.1',
/* originating_system */ 'Autodesk Translation Framework v15.8.0.0',
/* authorisation */ '');

FILE_SCHEMA (('AUTOMOTIVE_DESIGN { 1 0 10303 214 3 1 1 }'));
ENDSEC;

DATA;
#10=MECHANICAL_DESIGN_GEOMETRIC_PRESENTATION_REPRESENTATION('',(#17,#18,
#19,#20),#2041);
#11=ITEM_DEFINED_TRANSFORMATION($,$,#1247,#1351);
#12=(
REPRESENTATION_RELATIONSHIP($,$,#2052,#2051)
REPRESENTATION_RELATIONSHIP_WITH_TRANSFORMATION(#11)
SHAPE_REPRESENTATION_RELATIONSHIP()
);
#13=CONTEXT_DEPENDENT_SHAPE_REPRESENTATION(#12,#2050);
#14=NEXT_ASSEMBLY_USAGE_OCCURRENCE('HTNC 2200W SQUARE ER20 SPINDLE:1',
'HTNC 2200W SQUARE ER20 SPINDLE:1','HTNC 2200W SQUARE ER20 SPINDLE:1',#2054,
#2055,'HTNC 2200W SQUARE ER20 SPINDLE:1');
#15=SHAPE_REPRESENTATION_RELATIONSHIP('SRR','None',#2052,#16);
#16=ADVANCED_BREP_SHAPE_REPRESENTATION('',(#21,#22,#23,#24),#2040);
#17=STYLED_ITEM('',(#2066),#21);
#18=STYLED_ITEM('',(#2067),#22);
#19=STYLED_ITEM('',(#2067),#23);
#20=STYLED_ITEM('',(#2067),#24);
#21=MANIFOLD_SOLID_BREP('Body1',#1230);
#22=MANIFOLD_SOLID_BREP('Body2',#1231);
#23=MANIFOLD_SOLID_BREP('Body3',#1232);
#24=MANIFOLD_SOLID_BREP('Body4',#1233);
#25=FACE_BOUND('',#177,.T.);
#26=FACE_BOUND('',#180,.T.);
#27=FACE_BOUND('',#181,.T.);
#28=FACE_BOUND('',#182,.T.);
#29=FACE_BOUND('',#183,.T.);
#30=FACE_BOUND('',#186,.T.);
#31=FACE_BOUND('',#187,.T.);
#32=FACE_BOUND('',#188,.T.);
#33=FACE_BOUND('',#189,.T.);
#34=FACE_BOUND('',#190,.T.);
#35=FACE_BOUND('',#191,.T.);
#36=FACE_BOUND('',#192,.T.);
#37=FACE_BOUND('',#193,.T.);
#38=FACE_BOUND('',#196,.T.);
#39=FACE_BOUND('',#197,.T.);
#40=FACE_BOUND('',#198,.T.);
#41=FACE_BOUND('',#199,.T.);
#42=FACE_BOUND('',#201,.T.);
#43=FACE_BOUND('',#215,.T.);
#44=FACE_BOUND('',#219,.T.);
#45=CIRCLE('',#1254,3.5);
#46=CIRCLE('',#1255,3.5);
#47=CIRCLE('',#1257,3.5);
#48=CIRCLE('',#1258,3.5);
#49=CIRCLE('',#1260,3.5);
#50=CIRCLE('',#1261,3.5);
#51=CIRCLE('',#1263,3.5);
#52=CIRCLE('',#1264,3.5);
#53=CIRCLE('',#1266,3.5);
#54=CIRCLE('',#1267,3.5);
#55=CIRCLE('',#1269,3.5);
#56=CIRCLE('',#1270,3.5);
#57=CIRCLE('',#1272,3.5);
#58=CIRCLE('',#1273,3.5);
#59=CIRCLE('',#1275,3.5);
#60=CIRCLE('',#1276,3.5);
#61=CIRCLE('',#1278,11.);
#62=CIRCLE('',#1280,11.);
#63=CIRCLE('',#1282,30.);
#64=CIRCLE('',#1283,30.);
#65=CIRCLE('',#1294,17.);
#66=CIRCLE('',#1297,17.);
#67=CIRCLE('',#1300,17.);
#68=CIRCLE('',#1303,17.);
#69=CIRCLE('',#1306,17.);
#70=CIRCLE('',#1309,17.);
#71=CIRCLE('',#1311,17.);
#72=CIRCLE('',#1312,17.);
#73=CIRCLE('',#1313,17.);
#74=CIRCLE('',#1314,17.);
#75=CIRCLE('',#1315,17.);
#76=CIRCLE('',#1316,17.);
#77=CIRCLE('',#1317,17.);
#78=CIRCLE('',#1318,11.);
#79=CIRCLE('',#1320,11.);
#80=CIRCLE('',#1322,17.);
#81=CYLINDRICAL_SURFACE('',#1253,3.5);
#82=CYLINDRICAL_SURFACE('',#1256,3.5);
#83=CYLINDRICAL_SURFACE('',#1259,3.5);
#84=CYLINDRICAL_SURFACE('',#1262,3.5);
#85=CYLINDRICAL_SURFACE('',#1265,3.5);
#86=CYLINDRICAL_SURFACE('',#1268,3.5);
#87=CYLINDRICAL_SURFACE('',#1271,3.5);
#88=CYLINDRICAL_SURFACE('',#1274,3.5);
#89=CYLINDRICAL_SURFACE('',#1279,11.);
#90=CYLINDRICAL_SURFACE('',#1281,30.);
#91=CYLINDRICAL_SURFACE('',#1319,11.);
#92=CYLINDRICAL_SURFACE('',#1321,17.);
#93=FACE_OUTER_BOUND('',#160,.T.);
#94=FACE_OUTER_BOUND('',#161,.T.);
#95=FACE_OUTER_BOUND('',#162,.T.);
#96=FACE_OUTER_BOUND('',#163,.T.);
#97=FACE_OUTER_BOUND('',#164,.T.);
#98=FACE_OUTER_BOUND('',#165,.T.);
#99=FACE_OUTER_BOUND('',#166,.T.);
#100=FACE_OUTER_BOUND('',#167,.T.);
#101=FACE_OUTER_BOUND('',#168,.T.);
#102=FACE_OUTER_BOUND('',#169,.T.);
#103=FACE_OUTER_BOUND('',#170,.T.);
#104=FACE_OUTER_BOUND('',#171,.T.);
#105=FACE_OUTER_BOUND('',#172,.T.);
#106=FACE_OUTER_BOUND('',#173,.T.);
#107=FACE_OUTER_BOUND('',#174,.T.);
#108=FACE_OUTER_BOUND('',#175,.T.);
#109=FACE_OUTER_BOUND('',#176,.T.);
#110=FACE_OUTER_BOUND('',#178,.T.);
#111=FACE_OUTER_BOUND('',#179,.T.);
#112=FACE_OUTER_BOUND('',#184,.T.);
#113=FACE_OUTER_BOUND('',#185,.T.);
#114=FACE_OUTER_BOUND('',#194,.T.);
#115=FACE_OUTER_BOUND('',#195,.T.);
#116=FACE_OUTER_BOUND('',#200,.T.);
#117=FACE_OUTER_BOUND('',#202,.T.);
#118=FACE_OUTER_BOUND('',#203,.T.);
#119=FACE_OUTER_BOUND('',#204,.T.);
#120=FACE_OUTER_BOUND('',#205,.T.);
#121=FACE_OUTER_BOUND('',#206,.T.);
#122=FACE_OUTER_BOUND('',#207,.T.);
#123=FACE_OUTER_BOUND('',#208,.T.);
#124=FACE_OUTER_BOUND('',#209,.T.);
#125=FACE_OUTER_BOUND('',#210,.T.);
#126=FACE_OUTER_BOUND('',#211,.T.);
#127=FACE_OUTER_BOUND('',#212,.T.);
#128=FACE_OUTER_BOUND('',#213,.T.);
#129=FACE_OUTER_BOUND('',#214,.T.);
#130=FACE_OUTER_BOUND('',#216,.T.);
#131=FACE_OUTER_BOUND('',#217,.T.);
#132=FACE_OUTER_BOUND('',#218,.T.);
#133=FACE_OUTER_BOUND('',#220,.T.);
#134=FACE_OUTER_BOUND('',#221,.T.);
#135=FACE_OUTER_BOUND('',#222,.T.);
#136=FACE_OUTER_BOUND('',#223,.T.);
#137=FACE_OUTER_BOUND('',#224,.T.);
#138=FACE_OUTER_BOUND('',#225,.T.);
#139=FACE_OUTER_BOUND('',#226,.T.);
#140=FACE_OUTER_BOUND('',#227,.T.);
#141=FACE_OUTER_BOUND('',#228,.T.);
#142=FACE_OUTER_BOUND('',#229,.T.);
#143=FACE_OUTER_BOUND('',#230,.T.);
#144=FACE_OUTER_BOUND('',#231,.T.);
#145=FACE_OUTER_BOUND('',#232,.T.);
#146=FACE_OUTER_BOUND('',#233,.T.);
#147=FACE_OUTER_BOUND('',#234,.T.);
#148=FACE_OUTER_BOUND('',#235,.T.);
#149=FACE_OUTER_BOUND('',#236,.T.);
#150=FACE_OUTER_BOUND('',#237,.T.);
#151=FACE_OUTER_BOUND('',#238,.T.);
#152=FACE_OUTER_BOUND('',#239,.T.);
#153=FACE_OUTER_BOUND('',#240,.T.);
#154=FACE_OUTER_BOUND('',#241,.T.);
#155=FACE_OUTER_BOUND('',#242,.T.);
#156=FACE_OUTER_BOUND('',#243,.T.);
#157=FACE_OUTER_BOUND('',#244,.T.);
#158=FACE_OUTER_BOUND('',#245,.T.);
#159=FACE_OUTER_BOUND('',#246,.T.);
#160=EDGE_LOOP('',(#778,#779,#780,#781));
#161=EDGE_LOOP('',(#782,#783,#784,#785));
#162=EDGE_LOOP('',(#786,#787,#788,#789,#790,#791,#792,#793,#794,#795));
#163=EDGE_LOOP('',(#796,#797,#798,#799));
#164=EDGE_LOOP('',(#800,#801,#802,#803));
#165=EDGE_LOOP('',(#804,#805,#806,#807));
#166=EDGE_LOOP('',(#808,#809,#810,#811));
#167=EDGE_LOOP('',(#812,#813,#814,#815));
#168=EDGE_LOOP('',(#816,#817,#818,#819));
#169=EDGE_LOOP('',(#820,#821,#822,#823));
#170=EDGE_LOOP('',(#824,#825,#826,#827));
#171=EDGE_LOOP('',(#828,#829,#830,#831));
#172=EDGE_LOOP('',(#832,#833,#834,#835));
#173=EDGE_LOOP('',(#836));
#174=EDGE_LOOP('',(#837,#838,#839,#840));
#175=EDGE_LOOP('',(#841,#842,#843,#844));
#176=EDGE_LOOP('',(#845));
#177=EDGE_LOOP('',(#846));
#178=EDGE_LOOP('',(#847,#848,#849,#850));
#179=EDGE_LOOP('',(#851,#852,#853,#854));
#180=EDGE_LOOP('',(#855));
#181=EDGE_LOOP('',(#856));
#182=EDGE_LOOP('',(#857));
#183=EDGE_LOOP('',(#858));
#184=EDGE_LOOP('',(#859,#860,#861,#862));
#185=EDGE_LOOP('',(#863,#864,#865,#866));
#186=EDGE_LOOP('',(#867));
#187=EDGE_LOOP('',(#868));
#188=EDGE_LOOP('',(#869));
#189=EDGE_LOOP('',(#870));
#190=EDGE_LOOP('',(#871));
#191=EDGE_LOOP('',(#872));
#192=EDGE_LOOP('',(#873));
#193=EDGE_LOOP('',(#874));
#194=EDGE_LOOP('',(#875,#876,#877,#878));
#195=EDGE_LOOP('',(#879,#880,#881,#882));
#196=EDGE_LOOP('',(#883));
#197=EDGE_LOOP('',(#884));
#198=EDGE_LOOP('',(#885));
#199=EDGE_LOOP('',(#886));
#200=EDGE_LOOP('',(#887,#888,#889,#890,#891,#892,#893,#894,#895,#896));
#201=EDGE_LOOP('',(#897));
#202=EDGE_LOOP('',(#898,#899,#900,#901));
#203=EDGE_LOOP('',(#902,#903));
#204=EDGE_LOOP('',(#904,#905,#906,#907));
#205=EDGE_LOOP('',(#908,#909));
#206=EDGE_LOOP('',(#910,#911,#912,#913));
#207=EDGE_LOOP('',(#914,#915));
#208=EDGE_LOOP('',(#916,#917,#918,#919));
#209=EDGE_LOOP('',(#920,#921));
#210=EDGE_LOOP('',(#922,#923,#924,#925));
#211=EDGE_LOOP('',(#926,#927));
#212=EDGE_LOOP('',(#928,#929,#930,#931));
#213=EDGE_LOOP('',(#932,#933));
#214=EDGE_LOOP('',(#934,#935,#936,#937,#938,#939,#940,#941,#942,#943,#944,
#945,#946));
#215=EDGE_LOOP('',(#947));
#216=EDGE_LOOP('',(#948,#949,#950,#951));
#217=EDGE_LOOP('',(#952,#953,#954,#955,#956,#957,#958,#959,#960,#961,#962,
#963,#964,#965,#966,#967,#968,#969,#970,#971,#972,#973,#974,#975,#976,#977,
#978,#979));
#218=EDGE_LOOP('',(#980));
#219=EDGE_LOOP('',(#981));
#220=EDGE_LOOP('',(#982,#983,#984,#985));
#221=EDGE_LOOP('',(#986,#987,#988,#989));
#222=EDGE_LOOP('',(#990,#991,#992,#993,#994,#995,#996,#997));
#223=EDGE_LOOP('',(#998,#999,#1000,#1001));
#224=EDGE_LOOP('',(#1002,#1003,#1004,#1005));
#225=EDGE_LOOP('',(#1006,#1007,#1008,#1009));
#226=EDGE_LOOP('',(#1010,#1011,#1012,#1013));
#227=EDGE_LOOP('',(#1014,#1015,#1016,#1017));
#228=EDGE_LOOP('',(#1018,#1019,#1020,#1021));
#229=EDGE_LOOP('',(#1022,#1023,#1024,#1025,#1026,#1027,#1028,#1029));
#230=EDGE_LOOP('',(#1030,#1031,#1032,#1033));
#231=EDGE_LOOP('',(#1034,#1035,#1036,#1037,#1038,#1039));
#232=EDGE_LOOP('',(#1040,#1041,#1042,#1043,#1044,#1045,#1046,#1047));
#233=EDGE_LOOP('',(#1048,#1049,#1050,#1051));
#234=EDGE_LOOP('',(#1052,#1053,#1054,#1055,#1056,#1057));
#235=EDGE_LOOP('',(#1058,#1059,#1060));
#236=EDGE_LOOP('',(#1061,#1062,#1063,#1064));
#237=EDGE_LOOP('',(#1065,#1066,#1067));
#238=EDGE_LOOP('',(#1068,#1069,#1070,#1071));
#239=EDGE_LOOP('',(#1072,#1073,#1074,#1075));
#240=EDGE_LOOP('',(#1076,#1077,#1078,#1079));
#241=EDGE_LOOP('',(#1080,#1081,#1082,#1083));
#242=EDGE_LOOP('',(#1084,#1085,#1086,#1087));
#243=EDGE_LOOP('',(#1088,#1089,#1090,#1091));
#244=EDGE_LOOP('',(#1092,#1093,#1094,#1095,#1096,#1097));
#245=EDGE_LOOP('',(#1098,#1099,#1100,#1101));
#246=EDGE_LOOP('',(#1102,#1103,#1104,#1105,#1106,#1107));
#247=LINE('',#1698,#376);
#248=LINE('',#1700,#377);
#249=LINE('',#1702,#378);
#250=LINE('',#1703,#379);
#251=LINE('',#1706,#380);
#252=LINE('',#1708,#381);
#253=LINE('',#1709,#382);
#254=LINE('',#1712,#383);
#255=LINE('',#1714,#384);
#256=LINE('',#1716,#385);
#257=LINE('',#1718,#386);
#258=LINE('',#1720,#387);
#259=LINE('',#1722,#388);
#260=LINE('',#1724,#389);
#261=LINE('',#1725,#390);
#262=LINE('',#1728,#391);
#263=LINE('',#1730,#392);
#264=LINE('',#1731,#393);
#265=LINE('',#1734,#394);
#266=LINE('',#1735,#395);
#267=LINE('',#1740,#396);
#268=LINE('',#1746,#397);
#269=LINE('',#1752,#398);
#270=LINE('',#1758,#399);
#271=LINE('',#1764,#400);
#272=LINE('',#1770,#401);
#273=LINE('',#1776,#402);
#274=LINE('',#1782,#403);
#275=LINE('',#1789,#404);
#276=LINE('',#1795,#405);
#277=LINE('',#1799,#406);
#278=LINE('',#1802,#407);
#279=LINE('',#1803,#408);
#280=LINE('',#1806,#409);
#281=LINE('',#1807,#410);
#282=LINE('',#1810,#411);
#283=LINE('',#1811,#412);
#284=LINE('',#1814,#413);
#285=LINE('',#1815,#414);
#286=LINE('',#1817,#415);
#287=LINE('',#1822,#416);
#288=LINE('',#1824,#417);
#289=LINE('',#1826,#418);
#290=LINE('',#1827,#419);
#291=LINE('',#1833,#420);
#292=LINE('',#1835,#421);
#293=LINE('',#1837,#422);
#294=LINE('',#1838,#423);
#295=LINE('',#1844,#424);
#296=LINE('',#1846,#425);
#297=LINE('',#1848,#426);
#298=LINE('',#1849,#427);
#299=LINE('',#1855,#428);
#300=LINE('',#1857,#429);
#301=LINE('',#1859,#430);
#302=LINE('',#1860,#431);
#303=LINE('',#1866,#432);
#304=LINE('',#1868,#433);
#305=LINE('',#1870,#434);
#306=LINE('',#1871,#435);
#307=LINE('',#1877,#436);
#308=LINE('',#1879,#437);
#309=LINE('',#1881,#438);
#310=LINE('',#1882,#439);
#311=LINE('',#1899,#440);
#312=LINE('',#1903,#441);
#313=LINE('',#1908,#442);
#314=LINE('',#1910,#443);
#315=LINE('',#1912,#444);
#316=LINE('',#1913,#445);
#317=LINE('',#1916,#446);
#318=LINE('',#1918,#447);
#319=LINE('',#1919,#448);
#320=LINE('',#1922,#449);
#321=LINE('',#1924,#450);
#322=LINE('',#1926,#451);
#323=LINE('',#1928,#452);
#324=LINE('',#1930,#453);
#325=LINE('',#1931,#454);
#326=LINE('',#1934,#455);
#327=LINE('',#1935,#456);
#328=LINE('',#1938,#457);
#329=LINE('',#1939,#458);
#330=LINE('',#1943,#459);
#331=LINE('',#1944,#460);
#332=LINE('',#1945,#461);
#333=LINE('',#1947,#462);
#334=LINE('',#1950,#463);
#335=LINE('',#1951,#464);
#336=LINE('',#1953,#465);
#337=LINE('',#1958,#466);
#338=LINE('',#1960,#467);
#339=LINE('',#1962,#468);
#340=LINE('',#1963,#469);
#341=LINE('',#1966,#470);
#342=LINE('',#1968,#471);
#343=LINE('',#1970,#472);
#344=LINE('',#1972,#473);
#345=LINE('',#1973,#474);
#346=LINE('',#1976,#475);
#347=LINE('',#1978,#476);
#348=LINE('',#1980,#477);
#349=LINE('',#1982,#478);
#350=LINE('',#1984,#479);
#351=LINE('',#1985,#480);
#352=LINE('',#1988,#481);
#353=LINE('',#1990,#482);
#354=LINE('',#1991,#483);
#355=LINE('',#1994,#484);
#356=LINE('',#1996,#485);
#357=LINE('',#1998,#486);
#358=LINE('',#1999,#487);
#359=LINE('',#2002,#488);
#360=LINE('',#2004,#489);
#361=LINE('',#2005,#490);
#362=LINE('',#2008,#491);
#363=LINE('',#2009,#492);
#364=LINE('',#2013,#493);
#365=LINE('',#2014,#494);
#366=LINE('',#2015,#495);
#367=LINE('',#2018,#496);
#368=LINE('',#2019,#497);
#369=LINE('',#2021,#498);
#370=LINE('',#2023,#499);
#371=LINE('',#2024,#500);
#372=LINE('',#2026,#501);
#373=LINE('',#2028,#502);
#374=LINE('',#2030,#503);
#375=LINE('',#2032,#504);
#376=VECTOR('',#1358,10.);
#377=VECTOR('',#1359,10.);
#378=VECTOR('',#1360,10.);
#379=VECTOR('',#1361,10.);
#380=VECTOR('',#1364,10.);
#381=VECTOR('',#1365,10.);
#382=VECTOR('',#1366,10.);
#383=VECTOR('',#1369,10.);
#384=VECTOR('',#1370,10.);
#385=VECTOR('',#1371,10.);
#386=VECTOR('',#1372,10.);
#387=VECTOR('',#1373,10.);
#388=VECTOR('',#1374,10.);
#389=VECTOR('',#1375,10.);
#390=VECTOR('',#1376,10.);
#391=VECTOR('',#1379,10.);
#392=VECTOR('',#1380,10.);
#393=VECTOR('',#1381,10.);
#394=VECTOR('',#1384,10.);
#395=VECTOR('',#1385,10.);
#396=VECTOR('',#1390,3.5);
#397=VECTOR('',#1397,3.5);
#398=VECTOR('',#1404,3.5);
#399=VECTOR('',#1411,3.5);
#400=VECTOR('',#1418,3.5);
#401=VECTOR('',#1425,3.5);
#402=VECTOR('',#1432,3.5);
#403=VECTOR('',#1439,3.5);
#404=VECTOR('',#1448,11.);
#405=VECTOR('',#1455,30.);
#406=VECTOR('',#1462,10.);
#407=VECTOR('',#1465,10.);
#408=VECTOR('',#1466,10.);
#409=VECTOR('',#1469,10.);
#410=VECTOR('',#1470,10.);
#411=VECTOR('',#1473,10.);
#412=VECTOR('',#1474,10.);
#413=VECTOR('',#1477,10.);
#414=VECTOR('',#1478,10.);
#415=VECTOR('',#1481,10.);
#416=VECTOR('',#1486,10.);
#417=VECTOR('',#1487,10.);
#418=VECTOR('',#1488,10.);
#419=VECTOR('',#1489,10.);
#420=VECTOR('',#1496,10.);
#421=VECTOR('',#1497,10.);
#422=VECTOR('',#1498,10.);
#423=VECTOR('',#1499,10.);
#424=VECTOR('',#1506,10.);
#425=VECTOR('',#1507,10.);
#426=VECTOR('',#1508,10.);
#427=VECTOR('',#1509,10.);
#428=VECTOR('',#1516,10.);
#429=VECTOR('',#1517,10.);
#430=VECTOR('',#1518,10.);
#431=VECTOR('',#1519,10.);
#432=VECTOR('',#1526,10.);
#433=VECTOR('',#1527,10.);
#434=VECTOR('',#1528,10.);
#435=VECTOR('',#1529,10.);
#436=VECTOR('',#1536,10.);
#437=VECTOR('',#1537,10.);
#438=VECTOR('',#1538,10.);
#439=VECTOR('',#1539,10.);
#440=VECTOR('',#1566,11.);
#441=VECTOR('',#1571,17.);
#442=VECTOR('',#1576,10.);
#443=VECTOR('',#1577,10.);
#444=VECTOR('',#1578,10.);
#445=VECTOR('',#1579,10.);
#446=VECTOR('',#1582,10.);
#447=VECTOR('',#1583,10.);
#448=VECTOR('',#1584,10.);
#449=VECTOR('',#1587,10.);
#450=VECTOR('',#1588,10.);
#451=VECTOR('',#1589,10.);
#452=VECTOR('',#1590,10.);
#453=VECTOR('',#1591,10.);
#454=VECTOR('',#1592,10.);
#455=VECTOR('',#1595,10.);
#456=VECTOR('',#1596,10.);
#457=VECTOR('',#1599,10.);
#458=VECTOR('',#1600,10.);
#459=VECTOR('',#1603,10.);
#460=VECTOR('',#1604,10.);
#461=VECTOR('',#1605,10.);
#462=VECTOR('',#1608,10.);
#463=VECTOR('',#1611,10.);
#464=VECTOR('',#1612,10.);
#465=VECTOR('',#1615,10.);
#466=VECTOR('',#1620,10.);
#467=VECTOR('',#1621,10.);
#468=VECTOR('',#1622,10.);
#469=VECTOR('',#1623,10.);
#470=VECTOR('',#1626,10.);
#471=VECTOR('',#1627,10.);
#472=VECTOR('',#1628,10.);
#473=VECTOR('',#1629,10.);
#474=VECTOR('',#1630,10.);
#475=VECTOR('',#1633,10.);
#476=VECTOR('',#1634,10.);
#477=VECTOR('',#1635,10.);
#478=VECTOR('',#1636,10.);
#479=VECTOR('',#1637,10.);
#480=VECTOR('',#1638,10.);
#481=VECTOR('',#1641,10.);
#482=VECTOR('',#1642,10.);
#483=VECTOR('',#1643,10.);
#484=VECTOR('',#1646,10.);
#485=VECTOR('',#1647,10.);
#486=VECTOR('',#1648,10.);
#487=VECTOR('',#1649,10.);
#488=VECTOR('',#1652,10.);
#489=VECTOR('',#1653,10.);
#490=VECTOR('',#1654,10.);
#491=VECTOR('',#1657,10.);
#492=VECTOR('',#1658,10.);
#493=VECTOR('',#1661,10.);
#494=VECTOR('',#1662,10.);
#495=VECTOR('',#1663,10.);
#496=VECTOR('',#1666,10.);
#497=VECTOR('',#1667,10.);
#498=VECTOR('',#1670,10.);
#499=VECTOR('',#1673,10.);
#500=VECTOR('',#1674,10.);
#501=VECTOR('',#1677,10.);
#502=VECTOR('',#1680,10.);
#503=VECTOR('',#1683,10.);
#504=VECTOR('',#1686,10.);
#505=VERTEX_POINT('',#1696);
#506=VERTEX_POINT('',#1697);
#507=VERTEX_POINT('',#1699);
#508=VERTEX_POINT('',#1701);
#509=VERTEX_POINT('',#1705);
#510=VERTEX_POINT('',#1707);
#511=VERTEX_POINT('',#1711);
#512=VERTEX_POINT('',#1713);
#513=VERTEX_POINT('',#1715);
#514=VERTEX_POINT('',#1717);
#515=VERTEX_POINT('',#1719);
#516=VERTEX_POINT('',#1721);
#517=VERTEX_POINT('',#1723);
#518=VERTEX_POINT('',#1727);
#519=VERTEX_POINT('',#1729);
#520=VERTEX_POINT('',#1733);
#521=VERTEX_POINT('',#1737);
#522=VERTEX_POINT('',#1739);
#523=VERTEX_POINT('',#1743);
#524=VERTEX_POINT('',#1745);
#525=VERTEX_POINT('',#1749);
#526=VERTEX_POINT('',#1751);
#527=VERTEX_POINT('',#1755);
#528=VERTEX_POINT('',#1757);
#529=VERTEX_POINT('',#1761);
#530=VERTEX_POINT('',#1763);
#531=VERTEX_POINT('',#1767);
#532=VERTEX_POINT('',#1769);
#533=VERTEX_POINT('',#1773);
#534=VERTEX_POINT('',#1775);
#535=VERTEX_POINT('',#1779);
#536=VERTEX_POINT('',#1781);
#537=VERTEX_POINT('',#1785);
#538=VERTEX_POINT('',#1788);
#539=VERTEX_POINT('',#1792);
#540=VERTEX_POINT('',#1794);
#541=VERTEX_POINT('',#1801);
#542=VERTEX_POINT('',#1805);
#543=VERTEX_POINT('',#1809);
#544=VERTEX_POINT('',#1813);
#545=VERTEX_POINT('',#1820);
#546=VERTEX_POINT('',#1821);
#547=VERTEX_POINT('',#1823);
#548=VERTEX_POINT('',#1825);
#549=VERTEX_POINT('',#1831);
#550=VERTEX_POINT('',#1832);
#551=VERTEX_POINT('',#1834);
#552=VERTEX_POINT('',#1836);
#553=VERTEX_POINT('',#1842);
#554=VERTEX_POINT('',#1843);
#555=VERTEX_POINT('',#1845);
#556=VERTEX_POINT('',#1847);
#557=VERTEX_POINT('',#1853);
#558=VERTEX_POINT('',#1854);
#559=VERTEX_POINT('',#1856);
#560=VERTEX_POINT('',#1858);
#561=VERTEX_POINT('',#1864);
#562=VERTEX_POINT('',#1865);
#563=VERTEX_POINT('',#1867);
#564=VERTEX_POINT('',#1869);
#565=VERTEX_POINT('',#1875);
#566=VERTEX_POINT('',#1876);
#567=VERTEX_POINT('',#1878);
#568=VERTEX_POINT('',#1880);
#569=VERTEX_POINT('',#1890);
#570=VERTEX_POINT('',#1894);
#571=VERTEX_POINT('',#1897);
#572=VERTEX_POINT('',#1901);
#573=VERTEX_POINT('',#1906);
#574=VERTEX_POINT('',#1907);
#575=VERTEX_POINT('',#1909);
#576=VERTEX_POINT('',#1911);
#577=VERTEX_POINT('',#1915);
#578=VERTEX_POINT('',#1917);
#579=VERTEX_POINT('',#1921);
#580=VERTEX_POINT('',#1923);
#581=VERTEX_POINT('',#1925);
#582=VERTEX_POINT('',#1927);
#583=VERTEX_POINT('',#1929);
#584=VERTEX_POINT('',#1933);
#585=VERTEX_POINT('',#1937);
#586=VERTEX_POINT('',#1941);
#587=VERTEX_POINT('',#1942);
#588=VERTEX_POINT('',#1949);
#589=VERTEX_POINT('',#1956);
#590=VERTEX_POINT('',#1957);
#591=VERTEX_POINT('',#1959);
#592=VERTEX_POINT('',#1961);
#593=VERTEX_POINT('',#1965);
#594=VERTEX_POINT('',#1967);
#595=VERTEX_POINT('',#1969);
#596=VERTEX_POINT('',#1971);
#597=VERTEX_POINT('',#1975);
#598=VERTEX_POINT('',#1977);
#599=VERTEX_POINT('',#1979);
#600=VERTEX_POINT('',#1981);
#601=VERTEX_POINT('',#1983);
#602=VERTEX_POINT('',#1987);
#603=VERTEX_POINT('',#1989);
#604=VERTEX_POINT('',#1993);
#605=VERTEX_POINT('',#1995);
#606=VERTEX_POINT('',#1997);
#607=VERTEX_POINT('',#2001);
#608=VERTEX_POINT('',#2003);
#609=VERTEX_POINT('',#2007);
#610=VERTEX_POINT('',#2011);
#611=VERTEX_POINT('',#2012);
#612=VERTEX_POINT('',#2017);
#613=EDGE_CURVE('',#505,#506,#247,.T.);
#614=EDGE_CURVE('',#506,#507,#248,.T.);
#615=EDGE_CURVE('',#507,#508,#249,.T.);
#616=EDGE_CURVE('',#508,#505,#250,.T.);
#617=EDGE_CURVE('',#509,#506,#251,.T.);
#618=EDGE_CURVE('',#510,#509,#252,.F.);
#619=EDGE_CURVE('',#507,#510,#253,.T.);
#620=EDGE_CURVE('',#505,#511,#254,.T.);
#621=EDGE_CURVE('',#512,#511,#255,.T.);
#622=EDGE_CURVE('',#512,#513,#256,.T.);
#623=EDGE_CURVE('',#513,#514,#257,.F.);
#624=EDGE_CURVE('',#514,#515,#258,.T.);
#625=EDGE_CURVE('',#515,#516,#259,.T.);
#626=EDGE_CURVE('',#516,#517,#260,.T.);
#627=EDGE_CURVE('',#517,#509,#261,.F.);
#628=EDGE_CURVE('',#511,#518,#262,.T.);
#629=EDGE_CURVE('',#518,#519,#263,.T.);
#630=EDGE_CURVE('',#519,#512,#264,.T.);
#631=EDGE_CURVE('',#520,#519,#265,.T.);
#632=EDGE_CURVE('',#520,#513,#266,.T.);
#633=EDGE_CURVE('',#521,#521,#45,.F.);
#634=EDGE_CURVE('',#521,#522,#267,.T.);
#635=EDGE_CURVE('',#522,#522,#46,.T.);
#636=EDGE_CURVE('',#523,#523,#47,.F.);
#637=EDGE_CURVE('',#523,#524,#268,.T.);
#638=EDGE_CURVE('',#524,#524,#48,.T.);
#639=EDGE_CURVE('',#525,#525,#49,.F.);
#640=EDGE_CURVE('',#525,#526,#269,.T.);
#641=EDGE_CURVE('',#526,#526,#50,.T.);
#642=EDGE_CURVE('',#527,#527,#51,.F.);
#643=EDGE_CURVE('',#527,#528,#270,.T.);
#644=EDGE_CURVE('',#528,#528,#52,.T.);
#645=EDGE_CURVE('',#529,#529,#53,.F.);
#646=EDGE_CURVE('',#529,#530,#271,.T.);
#647=EDGE_CURVE('',#530,#530,#54,.T.);
#648=EDGE_CURVE('',#531,#531,#55,.F.);
#649=EDGE_CURVE('',#531,#532,#272,.T.);
#650=EDGE_CURVE('',#532,#532,#56,.T.);
#651=EDGE_CURVE('',#533,#533,#57,.F.);
#652=EDGE_CURVE('',#533,#534,#273,.T.);
#653=EDGE_CURVE('',#534,#534,#58,.T.);
#654=EDGE_CURVE('',#535,#535,#59,.F.);
#655=EDGE_CURVE('',#535,#536,#274,.T.);
#656=EDGE_CURVE('',#536,#536,#60,.T.);
#657=EDGE_CURVE('',#537,#537,#61,.T.);
#658=EDGE_CURVE('',#537,#538,#275,.T.);
#659=EDGE_CURVE('',#538,#538,#62,.T.);
#660=EDGE_CURVE('',#539,#539,#63,.T.);
#661=EDGE_CURVE('',#539,#540,#276,.T.);
#662=EDGE_CURVE('',#540,#540,#64,.T.);
#663=EDGE_CURVE('',#518,#508,#277,.T.);
#664=EDGE_CURVE('',#541,#510,#278,.T.);
#665=EDGE_CURVE('',#541,#517,#279,.F.);
#666=EDGE_CURVE('',#542,#541,#280,.T.);
#667=EDGE_CURVE('',#542,#516,#281,.T.);
#668=EDGE_CURVE('',#543,#542,#282,.T.);
#669=EDGE_CURVE('',#543,#515,#283,.T.);
#670=EDGE_CURVE('',#544,#543,#284,.T.);
#671=EDGE_CURVE('',#544,#514,#285,.T.);
#672=EDGE_CURVE('',#520,#544,#286,.T.);
#673=EDGE_CURVE('',#545,#546,#287,.T.);
#674=EDGE_CURVE('',#547,#545,#288,.T.);
#675=EDGE_CURVE('',#547,#548,#289,.T.);
#676=EDGE_CURVE('',#546,#548,#290,.T.);
#677=EDGE_CURVE('',#548,#547,#65,.T.);
#678=EDGE_CURVE('',#549,#550,#291,.T.);
#679=EDGE_CURVE('',#551,#549,#292,.T.);
#680=EDGE_CURVE('',#551,#552,#293,.T.);
#681=EDGE_CURVE('',#550,#552,#294,.T.);
#682=EDGE_CURVE('',#552,#551,#66,.T.);
#683=EDGE_CURVE('',#553,#554,#295,.T.);
#684=EDGE_CURVE('',#555,#553,#296,.T.);
#685=EDGE_CURVE('',#555,#556,#297,.T.);
#686=EDGE_CURVE('',#554,#556,#298,.T.);
#687=EDGE_CURVE('',#556,#555,#67,.T.);
#688=EDGE_CURVE('',#557,#558,#299,.T.);
#689=EDGE_CURVE('',#559,#557,#300,.T.);
#690=EDGE_CURVE('',#559,#560,#301,.T.);
#691=EDGE_CURVE('',#558,#560,#302,.T.);
#692=EDGE_CURVE('',#560,#559,#68,.T.);
#693=EDGE_CURVE('',#561,#562,#303,.T.);
#694=EDGE_CURVE('',#563,#561,#304,.T.);
#695=EDGE_CURVE('',#563,#564,#305,.T.);
#696=EDGE_CURVE('',#562,#564,#306,.T.);
#697=EDGE_CURVE('',#564,#563,#69,.T.);
#698=EDGE_CURVE('',#565,#566,#307,.T.);
#699=EDGE_CURVE('',#567,#565,#308,.T.);
#700=EDGE_CURVE('',#567,#568,#309,.T.);
#701=EDGE_CURVE('',#566,#568,#310,.T.);
#702=EDGE_CURVE('',#568,#567,#70,.T.);
#703=EDGE_CURVE('',#553,#546,#71,.T.);
#704=EDGE_CURVE('',#565,#554,#72,.T.);
#705=EDGE_CURVE('',#549,#566,#73,.T.);
#706=EDGE_CURVE('',#561,#550,#74,.T.);
#707=EDGE_CURVE('',#569,#562,#75,.T.);
#708=EDGE_CURVE('',#557,#569,#76,.T.);
#709=EDGE_CURVE('',#545,#558,#77,.T.);
#710=EDGE_CURVE('',#570,#570,#78,.T.);
#711=EDGE_CURVE('',#571,#571,#79,.T.);
#712=EDGE_CURVE('',#571,#570,#311,.T.);
#713=EDGE_CURVE('',#572,#572,#80,.T.);
#714=EDGE_CURVE('',#572,#569,#312,.T.);
#715=EDGE_CURVE('',#573,#574,#313,.T.);
#716=EDGE_CURVE('',#574,#575,#314,.T.);
#717=EDGE_CURVE('',#575,#576,#315,.T.);
#718=EDGE_CURVE('',#576,#573,#316,.T.);
#719=EDGE_CURVE('',#577,#576,#317,.T.);
#720=EDGE_CURVE('',#578,#577,#318,.T.);
#721=EDGE_CURVE('',#573,#578,#319,.F.);
#722=EDGE_CURVE('',#575,#579,#320,.T.);
#723=EDGE_CURVE('',#580,#579,#321,.T.);
#724=EDGE_CURVE('',#580,#581,#322,.T.);
#725=EDGE_CURVE('',#582,#581,#323,.T.);
#726=EDGE_CURVE('',#582,#583,#324,.T.);
#727=EDGE_CURVE('',#577,#583,#325,.T.);
#728=EDGE_CURVE('',#584,#578,#326,.T.);
#729=EDGE_CURVE('',#583,#584,#327,.T.);
#730=EDGE_CURVE('',#585,#582,#328,.T.);
#731=EDGE_CURVE('',#584,#585,#329,.F.);
#732=EDGE_CURVE('',#586,#587,#330,.T.);
#733=EDGE_CURVE('',#587,#580,#331,.T.);
#734=EDGE_CURVE('',#579,#586,#332,.T.);
#735=EDGE_CURVE('',#586,#574,#333,.F.);
#736=EDGE_CURVE('',#588,#585,#334,.T.);
#737=EDGE_CURVE('',#581,#588,#335,.T.);
#738=EDGE_CURVE('',#588,#587,#336,.F.);
#739=EDGE_CURVE('',#589,#590,#337,.F.);
#740=EDGE_CURVE('',#590,#591,#338,.T.);
#741=EDGE_CURVE('',#591,#592,#339,.F.);
#742=EDGE_CURVE('',#592,#589,#340,.T.);
#743=EDGE_CURVE('',#593,#591,#341,.T.);
#744=EDGE_CURVE('',#594,#590,#342,.T.);
#745=EDGE_CURVE('',#595,#594,#343,.T.);
#746=EDGE_CURVE('',#596,#595,#344,.T.);
#747=EDGE_CURVE('',#593,#596,#345,.T.);
#748=EDGE_CURVE('',#597,#589,#346,.F.);
#749=EDGE_CURVE('',#598,#597,#347,.F.);
#750=EDGE_CURVE('',#599,#598,#348,.F.);
#751=EDGE_CURVE('',#600,#599,#349,.F.);
#752=EDGE_CURVE('',#600,#601,#350,.T.);
#753=EDGE_CURVE('',#594,#601,#351,.F.);
#754=EDGE_CURVE('',#597,#602,#352,.T.);
#755=EDGE_CURVE('',#602,#603,#353,.F.);
#756=EDGE_CURVE('',#603,#598,#354,.T.);
#757=EDGE_CURVE('',#604,#603,#355,.F.);
#758=EDGE_CURVE('',#605,#604,#356,.T.);
#759=EDGE_CURVE('',#606,#605,#357,.T.);
#760=EDGE_CURVE('',#599,#606,#358,.T.);
#761=EDGE_CURVE('',#606,#607,#359,.T.);
#762=EDGE_CURVE('',#608,#606,#360,.T.);
#763=EDGE_CURVE('',#607,#608,#361,.T.);
#764=EDGE_CURVE('',#605,#609,#362,.T.);
#765=EDGE_CURVE('',#609,#608,#363,.T.);
#766=EDGE_CURVE('',#610,#611,#364,.T.);
#767=EDGE_CURVE('',#595,#610,#365,.T.);
#768=EDGE_CURVE('',#611,#595,#366,.T.);
#769=EDGE_CURVE('',#612,#596,#367,.T.);
#770=EDGE_CURVE('',#610,#612,#368,.T.);
#771=EDGE_CURVE('',#601,#611,#369,.T.);
#772=EDGE_CURVE('',#611,#607,#370,.T.);
#773=EDGE_CURVE('',#608,#610,#371,.T.);
#774=EDGE_CURVE('',#607,#600,#372,.T.);
#775=EDGE_CURVE('',#612,#609,#373,.T.);
#776=EDGE_CURVE('',#602,#592,#374,.T.);
#777=EDGE_CURVE('',#604,#593,#375,.T.);
#778=ORIENTED_EDGE('',*,*,#613,.T.);
#779=ORIENTED_EDGE('',*,*,#614,.T.);
#780=ORIENTED_EDGE('',*,*,#615,.T.);
#781=ORIENTED_EDGE('',*,*,#616,.T.);
#782=ORIENTED_EDGE('',*,*,#614,.F.);
#783=ORIENTED_EDGE('',*,*,#617,.F.);
#784=ORIENTED_EDGE('',*,*,#618,.F.);
#785=ORIENTED_EDGE('',*,*,#619,.F.);
#786=ORIENTED_EDGE('',*,*,#613,.F.);
#787=ORIENTED_EDGE('',*,*,#620,.T.);
#788=ORIENTED_EDGE('',*,*,#621,.F.);
#789=ORIENTED_EDGE('',*,*,#622,.T.);
#790=ORIENTED_EDGE('',*,*,#623,.T.);
#791=ORIENTED_EDGE('',*,*,#624,.T.);
#792=ORIENTED_EDGE('',*,*,#625,.T.);
#793=ORIENTED_EDGE('',*,*,#626,.T.);
#794=ORIENTED_EDGE('',*,*,#627,.T.);
#795=ORIENTED_EDGE('',*,*,#617,.T.);
#796=ORIENTED_EDGE('',*,*,#621,.T.);
#797=ORIENTED_EDGE('',*,*,#628,.T.);
#798=ORIENTED_EDGE('',*,*,#629,.T.);
#799=ORIENTED_EDGE('',*,*,#630,.T.);
#800=ORIENTED_EDGE('',*,*,#630,.F.);
#801=ORIENTED_EDGE('',*,*,#631,.F.);
#802=ORIENTED_EDGE('',*,*,#632,.T.);
#803=ORIENTED_EDGE('',*,*,#622,.F.);
#804=ORIENTED_EDGE('',*,*,#633,.F.);
#805=ORIENTED_EDGE('',*,*,#634,.T.);
#806=ORIENTED_EDGE('',*,*,#635,.F.);
#807=ORIENTED_EDGE('',*,*,#634,.F.);
#808=ORIENTED_EDGE('',*,*,#636,.F.);
#809=ORIENTED_EDGE('',*,*,#637,.T.);
#810=ORIENTED_EDGE('',*,*,#638,.F.);
#811=ORIENTED_EDGE('',*,*,#637,.F.);
#812=ORIENTED_EDGE('',*,*,#639,.F.);
#813=ORIENTED_EDGE('',*,*,#640,.T.);
#814=ORIENTED_EDGE('',*,*,#641,.F.);
#815=ORIENTED_EDGE('',*,*,#640,.F.);
#816=ORIENTED_EDGE('',*,*,#642,.F.);
#817=ORIENTED_EDGE('',*,*,#643,.T.);
#818=ORIENTED_EDGE('',*,*,#644,.F.);
#819=ORIENTED_EDGE('',*,*,#643,.F.);
#820=ORIENTED_EDGE('',*,*,#645,.F.);
#821=ORIENTED_EDGE('',*,*,#646,.T.);
#822=ORIENTED_EDGE('',*,*,#647,.F.);
#823=ORIENTED_EDGE('',*,*,#646,.F.);
#824=ORIENTED_EDGE('',*,*,#648,.F.);
#825=ORIENTED_EDGE('',*,*,#649,.T.);
#826=ORIENTED_EDGE('',*,*,#650,.F.);
#827=ORIENTED_EDGE('',*,*,#649,.F.);
#828=ORIENTED_EDGE('',*,*,#651,.F.);
#829=ORIENTED_EDGE('',*,*,#652,.T.);
#830=ORIENTED_EDGE('',*,*,#653,.F.);
#831=ORIENTED_EDGE('',*,*,#652,.F.);
#832=ORIENTED_EDGE('',*,*,#654,.F.);
#833=ORIENTED_EDGE('',*,*,#655,.T.);
#834=ORIENTED_EDGE('',*,*,#656,.F.);
#835=ORIENTED_EDGE('',*,*,#655,.F.);
#836=ORIENTED_EDGE('',*,*,#657,.F.);
#837=ORIENTED_EDGE('',*,*,#657,.T.);
#838=ORIENTED_EDGE('',*,*,#658,.T.);
#839=ORIENTED_EDGE('',*,*,#659,.F.);
#840=ORIENTED_EDGE('',*,*,#658,.F.);
#841=ORIENTED_EDGE('',*,*,#660,.F.);
#842=ORIENTED_EDGE('',*,*,#661,.T.);
#843=ORIENTED_EDGE('',*,*,#662,.F.);
#844=ORIENTED_EDGE('',*,*,#661,.F.);
#845=ORIENTED_EDGE('',*,*,#660,.T.);
#846=ORIENTED_EDGE('',*,*,#659,.T.);
#847=ORIENTED_EDGE('',*,*,#616,.F.);
#848=ORIENTED_EDGE('',*,*,#663,.F.);
#849=ORIENTED_EDGE('',*,*,#628,.F.);
#850=ORIENTED_EDGE('',*,*,#620,.F.);
#851=ORIENTED_EDGE('',*,*,#664,.T.);
#852=ORIENTED_EDGE('',*,*,#618,.T.);
#853=ORIENTED_EDGE('',*,*,#627,.F.);
#854=ORIENTED_EDGE('',*,*,#665,.F.);
#855=ORIENTED_EDGE('',*,*,#633,.T.);
#856=ORIENTED_EDGE('',*,*,#642,.T.);
#857=ORIENTED_EDGE('',*,*,#645,.T.);
#858=ORIENTED_EDGE('',*,*,#654,.T.);
#859=ORIENTED_EDGE('',*,*,#666,.T.);
#860=ORIENTED_EDGE('',*,*,#665,.T.);
#861=ORIENTED_EDGE('',*,*,#626,.F.);
#862=ORIENTED_EDGE('',*,*,#667,.F.);
#863=ORIENTED_EDGE('',*,*,#668,.T.);
#864=ORIENTED_EDGE('',*,*,#667,.T.);
#865=ORIENTED_EDGE('',*,*,#625,.F.);
#866=ORIENTED_EDGE('',*,*,#669,.F.);
#867=ORIENTED_EDGE('',*,*,#656,.T.);
#868=ORIENTED_EDGE('',*,*,#653,.T.);
#869=ORIENTED_EDGE('',*,*,#650,.T.);
#870=ORIENTED_EDGE('',*,*,#647,.T.);
#871=ORIENTED_EDGE('',*,*,#644,.T.);
#872=ORIENTED_EDGE('',*,*,#641,.T.);
#873=ORIENTED_EDGE('',*,*,#638,.T.);
#874=ORIENTED_EDGE('',*,*,#635,.T.);
#875=ORIENTED_EDGE('',*,*,#670,.T.);
#876=ORIENTED_EDGE('',*,*,#669,.T.);
#877=ORIENTED_EDGE('',*,*,#624,.F.);
#878=ORIENTED_EDGE('',*,*,#671,.F.);
#879=ORIENTED_EDGE('',*,*,#672,.T.);
#880=ORIENTED_EDGE('',*,*,#671,.T.);
#881=ORIENTED_EDGE('',*,*,#623,.F.);
#882=ORIENTED_EDGE('',*,*,#632,.F.);
#883=ORIENTED_EDGE('',*,*,#636,.T.);
#884=ORIENTED_EDGE('',*,*,#639,.T.);
#885=ORIENTED_EDGE('',*,*,#648,.T.);
#886=ORIENTED_EDGE('',*,*,#651,.T.);
#887=ORIENTED_EDGE('',*,*,#615,.F.);
#888=ORIENTED_EDGE('',*,*,#619,.T.);
#889=ORIENTED_EDGE('',*,*,#664,.F.);
#890=ORIENTED_EDGE('',*,*,#666,.F.);
#891=ORIENTED_EDGE('',*,*,#668,.F.);
#892=ORIENTED_EDGE('',*,*,#670,.F.);
#893=ORIENTED_EDGE('',*,*,#672,.F.);
#894=ORIENTED_EDGE('',*,*,#631,.T.);
#895=ORIENTED_EDGE('',*,*,#629,.F.);
#896=ORIENTED_EDGE('',*,*,#663,.T.);
#897=ORIENTED_EDGE('',*,*,#662,.T.);
#898=ORIENTED_EDGE('',*,*,#673,.F.);
#899=ORIENTED_EDGE('',*,*,#674,.F.);
#900=ORIENTED_EDGE('',*,*,#675,.T.);
#901=ORIENTED_EDGE('',*,*,#676,.F.);
#902=ORIENTED_EDGE('',*,*,#677,.F.);
#903=ORIENTED_EDGE('',*,*,#675,.F.);
#904=ORIENTED_EDGE('',*,*,#678,.F.);
#905=ORIENTED_EDGE('',*,*,#679,.F.);
#906=ORIENTED_EDGE('',*,*,#680,.T.);
#907=ORIENTED_EDGE('',*,*,#681,.F.);
#908=ORIENTED_EDGE('',*,*,#682,.F.);
#909=ORIENTED_EDGE('',*,*,#680,.F.);
#910=ORIENTED_EDGE('',*,*,#683,.F.);
#911=ORIENTED_EDGE('',*,*,#684,.F.);
#912=ORIENTED_EDGE('',*,*,#685,.T.);
#913=ORIENTED_EDGE('',*,*,#686,.F.);
#914=ORIENTED_EDGE('',*,*,#687,.F.);
#915=ORIENTED_EDGE('',*,*,#685,.F.);
#916=ORIENTED_EDGE('',*,*,#688,.F.);
#917=ORIENTED_EDGE('',*,*,#689,.F.);
#918=ORIENTED_EDGE('',*,*,#690,.T.);
#919=ORIENTED_EDGE('',*,*,#691,.F.);
#920=ORIENTED_EDGE('',*,*,#692,.F.);
#921=ORIENTED_EDGE('',*,*,#690,.F.);
#922=ORIENTED_EDGE('',*,*,#693,.F.);
#923=ORIENTED_EDGE('',*,*,#694,.F.);
#924=ORIENTED_EDGE('',*,*,#695,.T.);
#925=ORIENTED_EDGE('',*,*,#696,.F.);
#926=ORIENTED_EDGE('',*,*,#697,.F.);
#927=ORIENTED_EDGE('',*,*,#695,.F.);
#928=ORIENTED_EDGE('',*,*,#698,.F.);
#929=ORIENTED_EDGE('',*,*,#699,.F.);
#930=ORIENTED_EDGE('',*,*,#700,.T.);
#931=ORIENTED_EDGE('',*,*,#701,.F.);
#932=ORIENTED_EDGE('',*,*,#702,.F.);
#933=ORIENTED_EDGE('',*,*,#700,.F.);
#934=ORIENTED_EDGE('',*,*,#673,.T.);
#935=ORIENTED_EDGE('',*,*,#703,.F.);
#936=ORIENTED_EDGE('',*,*,#683,.T.);
#937=ORIENTED_EDGE('',*,*,#704,.F.);
#938=ORIENTED_EDGE('',*,*,#698,.T.);
#939=ORIENTED_EDGE('',*,*,#705,.F.);
#940=ORIENTED_EDGE('',*,*,#678,.T.);
#941=ORIENTED_EDGE('',*,*,#706,.F.);
#942=ORIENTED_EDGE('',*,*,#693,.T.);
#943=ORIENTED_EDGE('',*,*,#707,.F.);
#944=ORIENTED_EDGE('',*,*,#708,.F.);
#945=ORIENTED_EDGE('',*,*,#688,.T.);
#946=ORIENTED_EDGE('',*,*,#709,.F.);
#947=ORIENTED_EDGE('',*,*,#710,.F.);
#948=ORIENTED_EDGE('',*,*,#711,.F.);
#949=ORIENTED_EDGE('',*,*,#712,.T.);
#950=ORIENTED_EDGE('',*,*,#710,.T.);
#951=ORIENTED_EDGE('',*,*,#712,.F.);
#952=ORIENTED_EDGE('',*,*,#713,.F.);
#953=ORIENTED_EDGE('',*,*,#714,.T.);
#954=ORIENTED_EDGE('',*,*,#707,.T.);
#955=ORIENTED_EDGE('',*,*,#696,.T.);
#956=ORIENTED_EDGE('',*,*,#697,.T.);
#957=ORIENTED_EDGE('',*,*,#694,.T.);
#958=ORIENTED_EDGE('',*,*,#706,.T.);
#959=ORIENTED_EDGE('',*,*,#681,.T.);
#960=ORIENTED_EDGE('',*,*,#682,.T.);
#961=ORIENTED_EDGE('',*,*,#679,.T.);
#962=ORIENTED_EDGE('',*,*,#705,.T.);
#963=ORIENTED_EDGE('',*,*,#701,.T.);
#964=ORIENTED_EDGE('',*,*,#702,.T.);
#965=ORIENTED_EDGE('',*,*,#699,.T.);
#966=ORIENTED_EDGE('',*,*,#704,.T.);
#967=ORIENTED_EDGE('',*,*,#686,.T.);
#968=ORIENTED_EDGE('',*,*,#687,.T.);
#969=ORIENTED_EDGE('',*,*,#684,.T.);
#970=ORIENTED_EDGE('',*,*,#703,.T.);
#971=ORIENTED_EDGE('',*,*,#676,.T.);
#972=ORIENTED_EDGE('',*,*,#677,.T.);
#973=ORIENTED_EDGE('',*,*,#674,.T.);
#974=ORIENTED_EDGE('',*,*,#709,.T.);
#975=ORIENTED_EDGE('',*,*,#691,.T.);
#976=ORIENTED_EDGE('',*,*,#692,.T.);
#977=ORIENTED_EDGE('',*,*,#689,.T.);
#978=ORIENTED_EDGE('',*,*,#708,.T.);
#979=ORIENTED_EDGE('',*,*,#714,.F.);
#980=ORIENTED_EDGE('',*,*,#713,.T.);
#981=ORIENTED_EDGE('',*,*,#711,.T.);
#982=ORIENTED_EDGE('',*,*,#715,.T.);
#983=ORIENTED_EDGE('',*,*,#716,.T.);
#984=ORIENTED_EDGE('',*,*,#717,.T.);
#985=ORIENTED_EDGE('',*,*,#718,.T.);
#986=ORIENTED_EDGE('',*,*,#718,.F.);
#987=ORIENTED_EDGE('',*,*,#719,.F.);
#988=ORIENTED_EDGE('',*,*,#720,.F.);
#989=ORIENTED_EDGE('',*,*,#721,.F.);
#990=ORIENTED_EDGE('',*,*,#717,.F.);
#991=ORIENTED_EDGE('',*,*,#722,.T.);
#992=ORIENTED_EDGE('',*,*,#723,.F.);
#993=ORIENTED_EDGE('',*,*,#724,.T.);
#994=ORIENTED_EDGE('',*,*,#725,.F.);
#995=ORIENTED_EDGE('',*,*,#726,.T.);
#996=ORIENTED_EDGE('',*,*,#727,.F.);
#997=ORIENTED_EDGE('',*,*,#719,.T.);
#998=ORIENTED_EDGE('',*,*,#728,.T.);
#999=ORIENTED_EDGE('',*,*,#720,.T.);
#1000=ORIENTED_EDGE('',*,*,#727,.T.);
#1001=ORIENTED_EDGE('',*,*,#729,.T.);
#1002=ORIENTED_EDGE('',*,*,#729,.F.);
#1003=ORIENTED_EDGE('',*,*,#726,.F.);
#1004=ORIENTED_EDGE('',*,*,#730,.F.);
#1005=ORIENTED_EDGE('',*,*,#731,.F.);
#1006=ORIENTED_EDGE('',*,*,#732,.T.);
#1007=ORIENTED_EDGE('',*,*,#733,.T.);
#1008=ORIENTED_EDGE('',*,*,#723,.T.);
#1009=ORIENTED_EDGE('',*,*,#734,.T.);
#1010=ORIENTED_EDGE('',*,*,#716,.F.);
#1011=ORIENTED_EDGE('',*,*,#735,.F.);
#1012=ORIENTED_EDGE('',*,*,#734,.F.);
#1013=ORIENTED_EDGE('',*,*,#722,.F.);
#1014=ORIENTED_EDGE('',*,*,#736,.T.);
#1015=ORIENTED_EDGE('',*,*,#730,.T.);
#1016=ORIENTED_EDGE('',*,*,#725,.T.);
#1017=ORIENTED_EDGE('',*,*,#737,.T.);
#1018=ORIENTED_EDGE('',*,*,#733,.F.);
#1019=ORIENTED_EDGE('',*,*,#738,.F.);
#1020=ORIENTED_EDGE('',*,*,#737,.F.);
#1021=ORIENTED_EDGE('',*,*,#724,.F.);
#1022=ORIENTED_EDGE('',*,*,#715,.F.);
#1023=ORIENTED_EDGE('',*,*,#721,.T.);
#1024=ORIENTED_EDGE('',*,*,#728,.F.);
#1025=ORIENTED_EDGE('',*,*,#731,.T.);
#1026=ORIENTED_EDGE('',*,*,#736,.F.);
#1027=ORIENTED_EDGE('',*,*,#738,.T.);
#1028=ORIENTED_EDGE('',*,*,#732,.F.);
#1029=ORIENTED_EDGE('',*,*,#735,.T.);
#1030=ORIENTED_EDGE('',*,*,#739,.T.);
#1031=ORIENTED_EDGE('',*,*,#740,.T.);
#1032=ORIENTED_EDGE('',*,*,#741,.T.);
#1033=ORIENTED_EDGE('',*,*,#742,.T.);
#1034=ORIENTED_EDGE('',*,*,#743,.T.);
#1035=ORIENTED_EDGE('',*,*,#740,.F.);
#1036=ORIENTED_EDGE('',*,*,#744,.F.);
#1037=ORIENTED_EDGE('',*,*,#745,.F.);
#1038=ORIENTED_EDGE('',*,*,#746,.F.);
#1039=ORIENTED_EDGE('',*,*,#747,.F.);
#1040=ORIENTED_EDGE('',*,*,#739,.F.);
#1041=ORIENTED_EDGE('',*,*,#748,.F.);
#1042=ORIENTED_EDGE('',*,*,#749,.F.);
#1043=ORIENTED_EDGE('',*,*,#750,.F.);
#1044=ORIENTED_EDGE('',*,*,#751,.F.);
#1045=ORIENTED_EDGE('',*,*,#752,.T.);
#1046=ORIENTED_EDGE('',*,*,#753,.F.);
#1047=ORIENTED_EDGE('',*,*,#744,.T.);
#1048=ORIENTED_EDGE('',*,*,#749,.T.);
#1049=ORIENTED_EDGE('',*,*,#754,.T.);
#1050=ORIENTED_EDGE('',*,*,#755,.T.);
#1051=ORIENTED_EDGE('',*,*,#756,.T.);
#1052=ORIENTED_EDGE('',*,*,#756,.F.);
#1053=ORIENTED_EDGE('',*,*,#757,.F.);
#1054=ORIENTED_EDGE('',*,*,#758,.F.);
#1055=ORIENTED_EDGE('',*,*,#759,.F.);
#1056=ORIENTED_EDGE('',*,*,#760,.F.);
#1057=ORIENTED_EDGE('',*,*,#750,.T.);
#1058=ORIENTED_EDGE('',*,*,#761,.F.);
#1059=ORIENTED_EDGE('',*,*,#762,.F.);
#1060=ORIENTED_EDGE('',*,*,#763,.F.);
#1061=ORIENTED_EDGE('',*,*,#764,.T.);
#1062=ORIENTED_EDGE('',*,*,#765,.T.);
#1063=ORIENTED_EDGE('',*,*,#762,.T.);
#1064=ORIENTED_EDGE('',*,*,#759,.T.);
#1065=ORIENTED_EDGE('',*,*,#766,.F.);
#1066=ORIENTED_EDGE('',*,*,#767,.F.);
#1067=ORIENTED_EDGE('',*,*,#768,.F.);
#1068=ORIENTED_EDGE('',*,*,#769,.T.);
#1069=ORIENTED_EDGE('',*,*,#746,.T.);
#1070=ORIENTED_EDGE('',*,*,#767,.T.);
#1071=ORIENTED_EDGE('',*,*,#770,.T.);
#1072=ORIENTED_EDGE('',*,*,#753,.T.);
#1073=ORIENTED_EDGE('',*,*,#771,.T.);
#1074=ORIENTED_EDGE('',*,*,#768,.T.);
#1075=ORIENTED_EDGE('',*,*,#745,.T.);
#1076=ORIENTED_EDGE('',*,*,#766,.T.);
#1077=ORIENTED_EDGE('',*,*,#772,.T.);
#1078=ORIENTED_EDGE('',*,*,#763,.T.);
#1079=ORIENTED_EDGE('',*,*,#773,.T.);
#1080=ORIENTED_EDGE('',*,*,#751,.T.);
#1081=ORIENTED_EDGE('',*,*,#760,.T.);
#1082=ORIENTED_EDGE('',*,*,#761,.T.);
#1083=ORIENTED_EDGE('',*,*,#774,.T.);
#1084=ORIENTED_EDGE('',*,*,#770,.F.);
#1085=ORIENTED_EDGE('',*,*,#773,.F.);
#1086=ORIENTED_EDGE('',*,*,#765,.F.);
#1087=ORIENTED_EDGE('',*,*,#775,.F.);
#1088=ORIENTED_EDGE('',*,*,#742,.F.);
#1089=ORIENTED_EDGE('',*,*,#776,.F.);
#1090=ORIENTED_EDGE('',*,*,#754,.F.);
#1091=ORIENTED_EDGE('',*,*,#748,.T.);
#1092=ORIENTED_EDGE('',*,*,#776,.T.);
#1093=ORIENTED_EDGE('',*,*,#741,.F.);
#1094=ORIENTED_EDGE('',*,*,#743,.F.);
#1095=ORIENTED_EDGE('',*,*,#777,.F.);
#1096=ORIENTED_EDGE('',*,*,#757,.T.);
#1097=ORIENTED_EDGE('',*,*,#755,.F.);
#1098=ORIENTED_EDGE('',*,*,#771,.F.);
#1099=ORIENTED_EDGE('',*,*,#752,.F.);
#1100=ORIENTED_EDGE('',*,*,#774,.F.);
#1101=ORIENTED_EDGE('',*,*,#772,.F.);
#1102=ORIENTED_EDGE('',*,*,#769,.F.);
#1103=ORIENTED_EDGE('',*,*,#775,.T.);
#1104=ORIENTED_EDGE('',*,*,#764,.F.);
#1105=ORIENTED_EDGE('',*,*,#758,.T.);
#1106=ORIENTED_EDGE('',*,*,#777,.T.);
#1107=ORIENTED_EDGE('',*,*,#747,.T.);
#1108=PLANE('',#1248);
#1109=PLANE('',#1249);
#1110=PLANE('',#1250);
#1111=PLANE('',#1251);
#1112=PLANE('',#1252);
#1113=PLANE('',#1277);
#1114=PLANE('',#1284);
#1115=PLANE('',#1285);
#1116=PLANE('',#1286);
#1117=PLANE('',#1287);
#1118=PLANE('',#1288);
#1119=PLANE('',#1289);
#1120=PLANE('',#1290);
#1121=PLANE('',#1291);
#1122=PLANE('',#1292);
#1123=PLANE('',#1293);
#1124=PLANE('',#1295);
#1125=PLANE('',#1296);
#1126=PLANE('',#1298);
#1127=PLANE('',#1299);
#1128=PLANE('',#1301);
#1129=PLANE('',#1302);
#1130=PLANE('',#1304);
#1131=PLANE('',#1305);
#1132=PLANE('',#1307);
#1133=PLANE('',#1308);
#1134=PLANE('',#1310);
#1135=PLANE('',#1323);
#1136=PLANE('',#1324);
#1137=PLANE('',#1325);
#1138=PLANE('',#1326);
#1139=PLANE('',#1327);
#1140=PLANE('',#1328);
#1141=PLANE('',#1329);
#1142=PLANE('',#1330);
#1143=PLANE('',#1331);
#1144=PLANE('',#1332);
#1145=PLANE('',#1333);
#1146=PLANE('',#1334);
#1147=PLANE('',#1335);
#1148=PLANE('',#1336);
#1149=PLANE('',#1337);
#1150=PLANE('',#1338);
#1151=PLANE('',#1339);
#1152=PLANE('',#1340);
#1153=PLANE('',#1341);
#1154=PLANE('',#1342);
#1155=PLANE('',#1343);
#1156=PLANE('',#1344);
#1157=PLANE('',#1345);
#1158=PLANE('',#1346);
#1159=PLANE('',#1347);
#1160=PLANE('',#1348);
#1161=PLANE('',#1349);
#1162=PLANE('',#1350);
#1163=ADVANCED_FACE('',(#93),#1108,.T.);
#1164=ADVANCED_FACE('',(#94),#1109,.T.);
#1165=ADVANCED_FACE('',(#95),#1110,.T.);
#1166=ADVANCED_FACE('',(#96),#1111,.T.);
#1167=ADVANCED_FACE('',(#97),#1112,.T.);
#1168=ADVANCED_FACE('',(#98),#81,.F.);
#1169=ADVANCED_FACE('',(#99),#82,.F.);
#1170=ADVANCED_FACE('',(#100),#83,.F.);
#1171=ADVANCED_FACE('',(#101),#84,.F.);
#1172=ADVANCED_FACE('',(#102),#85,.F.);
#1173=ADVANCED_FACE('',(#103),#86,.F.);
#1174=ADVANCED_FACE('',(#104),#87,.F.);
#1175=ADVANCED_FACE('',(#105),#88,.F.);
#1176=ADVANCED_FACE('',(#106),#1113,.T.);
#1177=ADVANCED_FACE('',(#107),#89,.T.);
#1178=ADVANCED_FACE('',(#108),#90,.T.);
#1179=ADVANCED_FACE('',(#109,#25),#1114,.T.);
#1180=ADVANCED_FACE('',(#110),#1115,.T.);
#1181=ADVANCED_FACE('',(#111,#26,#27,#28,#29),#1116,.T.);
#1182=ADVANCED_FACE('',(#112),#1117,.T.);
#1183=ADVANCED_FACE('',(#113,#30,#31,#32,#33,#34,#35,#36,#37),#1118,.T.);
#1184=ADVANCED_FACE('',(#114),#1119,.T.);
#1185=ADVANCED_FACE('',(#115,#38,#39,#40,#41),#1120,.T.);
#1186=ADVANCED_FACE('',(#116,#42),#1121,.T.);
#1187=ADVANCED_FACE('',(#117),#1122,.F.);
#1188=ADVANCED_FACE('',(#118),#1123,.T.);
#1189=ADVANCED_FACE('',(#119),#1124,.F.);
#1190=ADVANCED_FACE('',(#120),#1125,.T.);
#1191=ADVANCED_FACE('',(#121),#1126,.F.);
#1192=ADVANCED_FACE('',(#122),#1127,.T.);
#1193=ADVANCED_FACE('',(#123),#1128,.F.);
#1194=ADVANCED_FACE('',(#124),#1129,.T.);
#1195=ADVANCED_FACE('',(#125),#1130,.F.);
#1196=ADVANCED_FACE('',(#126),#1131,.T.);
#1197=ADVANCED_FACE('',(#127),#1132,.F.);
#1198=ADVANCED_FACE('',(#128),#1133,.T.);
#1199=ADVANCED_FACE('',(#129,#43),#1134,.T.);
#1200=ADVANCED_FACE('',(#130),#91,.F.);
#1201=ADVANCED_FACE('',(#131),#92,.T.);
#1202=ADVANCED_FACE('',(#132,#44),#1135,.F.);
#1203=ADVANCED_FACE('',(#133),#1136,.T.);
#1204=ADVANCED_FACE('',(#134),#1137,.T.);
#1205=ADVANCED_FACE('',(#135),#1138,.F.);
#1206=ADVANCED_FACE('',(#136),#1139,.T.);
#1207=ADVANCED_FACE('',(#137),#1140,.T.);
#1208=ADVANCED_FACE('',(#138),#1141,.T.);
#1209=ADVANCED_FACE('',(#139),#1142,.T.);
#1210=ADVANCED_FACE('',(#140),#1143,.T.);
#1211=ADVANCED_FACE('',(#141),#1144,.T.);
#1212=ADVANCED_FACE('',(#142),#1145,.T.);
#1213=ADVANCED_FACE('',(#143),#1146,.T.);
#1214=ADVANCED_FACE('',(#144),#1147,.T.);
#1215=ADVANCED_FACE('',(#145),#1148,.T.);
#1216=ADVANCED_FACE('',(#146),#1149,.T.);
#1217=ADVANCED_FACE('',(#147),#1150,.T.);
#1218=ADVANCED_FACE('',(#148),#1151,.T.);
#1219=ADVANCED_FACE('',(#149),#1152,.T.);
#1220=ADVANCED_FACE('',(#150),#1153,.T.);
#1221=ADVANCED_FACE('',(#151),#1154,.T.);
#1222=ADVANCED_FACE('',(#152),#1155,.T.);
#1223=ADVANCED_FACE('',(#153),#1156,.T.);
#1224=ADVANCED_FACE('',(#154),#1157,.T.);
#1225=ADVANCED_FACE('',(#155),#1158,.T.);
#1226=ADVANCED_FACE('',(#156),#1159,.T.);
#1227=ADVANCED_FACE('',(#157),#1160,.T.);
#1228=ADVANCED_FACE('',(#158),#1161,.T.);
#1229=ADVANCED_FACE('',(#159),#1162,.F.);
#1230=CLOSED_SHELL('',(#1163,#1164,#1165,#1166,#1167,#1168,#1169,#1170,
#1171,#1172,#1173,#1174,#1175,#1176,#1177,#1178,#1179,#1180,#1181,#1182,
#1183,#1184,#1185,#1186));
#1231=CLOSED_SHELL('',(#1187,#1188,#1189,#1190,#1191,#1192,#1193,#1194,
#1195,#1196,#1197,#1198,#1199,#1200,#1201,#1202));
#1232=CLOSED_SHELL('',(#1203,#1204,#1205,#1206,#1207,#1208,#1209,#1210,
#1211,#1212));
#1233=CLOSED_SHELL('',(#1213,#1214,#1215,#1216,#1217,#1218,#1219,#1220,
#1221,#1222,#1223,#1224,#1225,#1226,#1227,#1228,#1229));
#1234=DERIVED_UNIT_ELEMENT(#1236,1.);
#1235=DERIVED_UNIT_ELEMENT(#2043,-3.);
#1236=(
MASS_UNIT()
NAMED_UNIT(*)
SI_UNIT(.KILO.,.GRAM.)
);
#1237=DERIVED_UNIT((#1234,#1235));
#1238=MEASURE_REPRESENTATION_ITEM('density measure',
POSITIVE_RATIO_MEASURE(7850.),#1237);
#1239=PROPERTY_DEFINITION_REPRESENTATION(#1244,#1241);
#1240=PROPERTY_DEFINITION_REPRESENTATION(#1245,#1242);
#1241=REPRESENTATION('material name',(#1243),#2040);
#1242=REPRESENTATION('density',(#1238),#2040);
#1243=DESCRIPTIVE_REPRESENTATION_ITEM('Steel','Steel');
#1244=PROPERTY_DEFINITION('material property','material name',#2055);
#1245=PROPERTY_DEFINITION('material property','density of part',#2055);
#1246=AXIS2_PLACEMENT_3D('',#1693,#1352,#1353);
#1247=AXIS2_PLACEMENT_3D('',#1694,#1354,#1355);
#1248=AXIS2_PLACEMENT_3D('',#1695,#1356,#1357);
#1249=AXIS2_PLACEMENT_3D('',#1704,#1362,#1363);
#1250=AXIS2_PLACEMENT_3D('',#1710,#1367,#1368);
#1251=AXIS2_PLACEMENT_3D('',#1726,#1377,#1378);
#1252=AXIS2_PLACEMENT_3D('',#1732,#1382,#1383);
#1253=AXIS2_PLACEMENT_3D('',#1736,#1386,#1387);
#1254=AXIS2_PLACEMENT_3D('',#1738,#1388,#1389);
#1255=AXIS2_PLACEMENT_3D('',#1741,#1391,#1392);
#1256=AXIS2_PLACEMENT_3D('',#1742,#1393,#1394);
#1257=AXIS2_PLACEMENT_3D('',#1744,#1395,#1396);
#1258=AXIS2_PLACEMENT_3D('',#1747,#1398,#1399);
#1259=AXIS2_PLACEMENT_3D('',#1748,#1400,#1401);
#1260=AXIS2_PLACEMENT_3D('',#1750,#1402,#1403);
#1261=AXIS2_PLACEMENT_3D('',#1753,#1405,#1406);
#1262=AXIS2_PLACEMENT_3D('',#1754,#1407,#1408);
#1263=AXIS2_PLACEMENT_3D('',#1756,#1409,#1410);
#1264=AXIS2_PLACEMENT_3D('',#1759,#1412,#1413);
#1265=AXIS2_PLACEMENT_3D('',#1760,#1414,#1415);
#1266=AXIS2_PLACEMENT_3D('',#1762,#1416,#1417);
#1267=AXIS2_PLACEMENT_3D('',#1765,#1419,#1420);
#1268=AXIS2_PLACEMENT_3D('',#1766,#1421,#1422);
#1269=AXIS2_PLACEMENT_3D('',#1768,#1423,#1424);
#1270=AXIS2_PLACEMENT_3D('',#1771,#1426,#1427);
#1271=AXIS2_PLACEMENT_3D('',#1772,#1428,#1429);
#1272=AXIS2_PLACEMENT_3D('',#1774,#1430,#1431);
#1273=AXIS2_PLACEMENT_3D('',#1777,#1433,#1434);
#1274=AXIS2_PLACEMENT_3D('',#1778,#1435,#1436);
#1275=AXIS2_PLACEMENT_3D('',#1780,#1437,#1438);
#1276=AXIS2_PLACEMENT_3D('',#1783,#1440,#1441);
#1277=AXIS2_PLACEMENT_3D('',#1784,#1442,#1443);
#1278=AXIS2_PLACEMENT_3D('',#1786,#1444,#1445);
#1279=AXIS2_PLACEMENT_3D('',#1787,#1446,#1447);
#1280=AXIS2_PLACEMENT_3D('',#1790,#1449,#1450);
#1281=AXIS2_PLACEMENT_3D('',#1791,#1451,#1452);
#1282=AXIS2_PLACEMENT_3D('',#1793,#1453,#1454);
#1283=AXIS2_PLACEMENT_3D('',#1796,#1456,#1457);
#1284=AXIS2_PLACEMENT_3D('',#1797,#1458,#1459);
#1285=AXIS2_PLACEMENT_3D('',#1798,#1460,#1461);
#1286=AXIS2_PLACEMENT_3D('',#1800,#1463,#1464);
#1287=AXIS2_PLACEMENT_3D('',#1804,#1467,#1468);
#1288=AXIS2_PLACEMENT_3D('',#1808,#1471,#1472);
#1289=AXIS2_PLACEMENT_3D('',#1812,#1475,#1476);
#1290=AXIS2_PLACEMENT_3D('',#1816,#1479,#1480);
#1291=AXIS2_PLACEMENT_3D('',#1818,#1482,#1483);
#1292=AXIS2_PLACEMENT_3D('',#1819,#1484,#1485);
#1293=AXIS2_PLACEMENT_3D('',#1828,#1490,#1491);
#1294=AXIS2_PLACEMENT_3D('',#1829,#1492,#1493);
#1295=AXIS2_PLACEMENT_3D('',#1830,#1494,#1495);
#1296=AXIS2_PLACEMENT_3D('',#1839,#1500,#1501);
#1297=AXIS2_PLACEMENT_3D('',#1840,#1502,#1503);
#1298=AXIS2_PLACEMENT_3D('',#1841,#1504,#1505);
#1299=AXIS2_PLACEMENT_3D('',#1850,#1510,#1511);
#1300=AXIS2_PLACEMENT_3D('',#1851,#1512,#1513);
#1301=AXIS2_PLACEMENT_3D('',#1852,#1514,#1515);
#1302=AXIS2_PLACEMENT_3D('',#1861,#1520,#1521);
#1303=AXIS2_PLACEMENT_3D('',#1862,#1522,#1523);
#1304=AXIS2_PLACEMENT_3D('',#1863,#1524,#1525);
#1305=AXIS2_PLACEMENT_3D('',#1872,#1530,#1531);
#1306=AXIS2_PLACEMENT_3D('',#1873,#1532,#1533);
#1307=AXIS2_PLACEMENT_3D('',#1874,#1534,#1535);
#1308=AXIS2_PLACEMENT_3D('',#1883,#1540,#1541);
#1309=AXIS2_PLACEMENT_3D('',#1884,#1542,#1543);
#1310=AXIS2_PLACEMENT_3D('',#1885,#1544,#1545);
#1311=AXIS2_PLACEMENT_3D('',#1886,#1546,#1547);
#1312=AXIS2_PLACEMENT_3D('',#1887,#1548,#1549);
#1313=AXIS2_PLACEMENT_3D('',#1888,#1550,#1551);
#1314=AXIS2_PLACEMENT_3D('',#1889,#1552,#1553);
#1315=AXIS2_PLACEMENT_3D('',#1891,#1554,#1555);
#1316=AXIS2_PLACEMENT_3D('',#1892,#1556,#1557);
#1317=AXIS2_PLACEMENT_3D('',#1893,#1558,#1559);
#1318=AXIS2_PLACEMENT_3D('',#1895,#1560,#1561);
#1319=AXIS2_PLACEMENT_3D('',#1896,#1562,#1563);
#1320=AXIS2_PLACEMENT_3D('',#1898,#1564,#1565);
#1321=AXIS2_PLACEMENT_3D('',#1900,#1567,#1568);
#1322=AXIS2_PLACEMENT_3D('',#1902,#1569,#1570);
#1323=AXIS2_PLACEMENT_3D('',#1904,#1572,#1573);
#1324=AXIS2_PLACEMENT_3D('',#1905,#1574,#1575);
#1325=AXIS2_PLACEMENT_3D('',#1914,#1580,#1581);
#1326=AXIS2_PLACEMENT_3D('',#1920,#1585,#1586);
#1327=AXIS2_PLACEMENT_3D('',#1932,#1593,#1594);
#1328=AXIS2_PLACEMENT_3D('',#1936,#1597,#1598);
#1329=AXIS2_PLACEMENT_3D('',#1940,#1601,#1602);
#1330=AXIS2_PLACEMENT_3D('',#1946,#1606,#1607);
#1331=AXIS2_PLACEMENT_3D('',#1948,#1609,#1610);
#1332=AXIS2_PLACEMENT_3D('',#1952,#1613,#1614);
#1333=AXIS2_PLACEMENT_3D('',#1954,#1616,#1617);
#1334=AXIS2_PLACEMENT_3D('',#1955,#1618,#1619);
#1335=AXIS2_PLACEMENT_3D('',#1964,#1624,#1625);
#1336=AXIS2_PLACEMENT_3D('',#1974,#1631,#1632);
#1337=AXIS2_PLACEMENT_3D('',#1986,#1639,#1640);
#1338=AXIS2_PLACEMENT_3D('',#1992,#1644,#1645);
#1339=AXIS2_PLACEMENT_3D('',#2000,#1650,#1651);
#1340=AXIS2_PLACEMENT_3D('',#2006,#1655,#1656);
#1341=AXIS2_PLACEMENT_3D('',#2010,#1659,#1660);
#1342=AXIS2_PLACEMENT_3D('',#2016,#1664,#1665);
#1343=AXIS2_PLACEMENT_3D('',#2020,#1668,#1669);
#1344=AXIS2_PLACEMENT_3D('',#2022,#1671,#1672);
#1345=AXIS2_PLACEMENT_3D('',#2025,#1675,#1676);
#1346=AXIS2_PLACEMENT_3D('',#2027,#1678,#1679);
#1347=AXIS2_PLACEMENT_3D('',#2029,#1681,#1682);
#1348=AXIS2_PLACEMENT_3D('',#2031,#1684,#1685);
#1349=AXIS2_PLACEMENT_3D('',#2033,#1687,#1688);
#1350=AXIS2_PLACEMENT_3D('',#2034,#1689,#1690);
#1351=AXIS2_PLACEMENT_3D('',#2035,#1691,#1692);
#1352=DIRECTION('axis',(0.,0.,1.));
#1353=DIRECTION('refdir',(1.,0.,0.));
#1354=DIRECTION('axis',(0.,0.,1.));
#1355=DIRECTION('refdir',(1.,0.,0.));
#1356=DIRECTION('center_axis',(0.,-0.707106781186548,0.707106781186548));
#1357=DIRECTION('ref_axis',(1.,0.,0.));
#1358=DIRECTION('',(0.,-0.707106781186548,-0.707106781186548));
#1359=DIRECTION('',(1.,0.,0.));
#1360=DIRECTION('',(0.,0.707106781186548,0.707106781186548));
#1361=DIRECTION('',(-1.,0.,0.));
#1362=DIRECTION('center_axis',(0.,-1.,0.));
#1363=DIRECTION('ref_axis',(0.,0.,1.));
#1364=DIRECTION('',(0.,0.,1.));
#1365=DIRECTION('',(1.,0.,0.));
#1366=DIRECTION('',(0.,0.,-1.));
#1367=DIRECTION('center_axis',(-1.,0.,0.));
#1368=DIRECTION('ref_axis',(0.,0.,1.));
#1369=DIRECTION('',(0.,1.,0.));
#1370=DIRECTION('',(0.,-0.707106781186547,0.707106781186547));
#1371=DIRECTION('',(0.,0.,-1.));
#1372=DIRECTION('',(0.,-1.,0.));
#1373=DIRECTION('',(0.,-1.17080559714386E-7,-0.999999999999993));
#1374=DIRECTION('',(0.,-1.,0.));
#1375=DIRECTION('',(0.,0.,1.));
#1376=DIRECTION('',(0.,-1.,0.));
#1377=DIRECTION('center_axis',(0.,0.707106781186548,0.707106781186548));
#1378=DIRECTION('ref_axis',(1.,0.,0.));
#1379=DIRECTION('',(1.,0.,0.));
#1380=DIRECTION('',(0.,0.707106781186547,-0.707106781186547));
#1381=DIRECTION('',(-1.,0.,0.));
#1382=DIRECTION('center_axis',(0.,1.,0.));
#1383=DIRECTION('ref_axis',(0.,0.,-1.));
#1384=DIRECTION('',(0.,0.,1.));
#1385=DIRECTION('',(-1.,0.,0.));
#1386=DIRECTION('center_axis',(0.,0.,-1.));
#1387=DIRECTION('ref_axis',(-1.,0.,0.));
#1388=DIRECTION('center_axis',(0.,0.,1.));
#1389=DIRECTION('ref_axis',(-1.,0.,0.));
#1390=DIRECTION('',(0.,0.,-1.));
#1391=DIRECTION('center_axis',(0.,0.,1.));
#1392=DIRECTION('ref_axis',(-1.,0.,0.));
#1393=DIRECTION('center_axis',(0.,0.,-1.));
#1394=DIRECTION('ref_axis',(-1.,0.,0.));
#1395=DIRECTION('center_axis',(0.,0.,1.));
#1396=DIRECTION('ref_axis',(-1.,0.,0.));
#1397=DIRECTION('',(0.,0.,-1.));
#1398=DIRECTION('center_axis',(0.,0.,1.));
#1399=DIRECTION('ref_axis',(-1.,0.,0.));
#1400=DIRECTION('center_axis',(0.,0.,-1.));
#1401=DIRECTION('ref_axis',(-1.,0.,0.));
#1402=DIRECTION('center_axis',(0.,0.,1.));
#1403=DIRECTION('ref_axis',(-1.,0.,0.));
#1404=DIRECTION('',(0.,0.,-1.));
#1405=DIRECTION('center_axis',(0.,0.,1.));
#1406=DIRECTION('ref_axis',(-1.,0.,0.));
#1407=DIRECTION('center_axis',(0.,0.,-1.));
#1408=DIRECTION('ref_axis',(-1.,0.,0.));
#1409=DIRECTION('center_axis',(0.,0.,1.));
#1410=DIRECTION('ref_axis',(-1.,0.,0.));
#1411=DIRECTION('',(0.,0.,-1.));
#1412=DIRECTION('center_axis',(0.,0.,1.));
#1413=DIRECTION('ref_axis',(-1.,0.,0.));
#1414=DIRECTION('center_axis',(0.,0.,-1.));
#1415=DIRECTION('ref_axis',(-1.,0.,0.));
#1416=DIRECTION('center_axis',(0.,0.,1.));
#1417=DIRECTION('ref_axis',(-1.,0.,0.));
#1418=DIRECTION('',(0.,0.,-1.));
#1419=DIRECTION('center_axis',(0.,0.,1.));
#1420=DIRECTION('ref_axis',(-1.,0.,0.));
#1421=DIRECTION('center_axis',(0.,0.,-1.));
#1422=DIRECTION('ref_axis',(-1.,0.,0.));
#1423=DIRECTION('center_axis',(0.,0.,1.));
#1424=DIRECTION('ref_axis',(-1.,0.,0.));
#1425=DIRECTION('',(0.,0.,-1.));
#1426=DIRECTION('center_axis',(0.,0.,1.));
#1427=DIRECTION('ref_axis',(-1.,0.,0.));
#1428=DIRECTION('center_axis',(0.,0.,-1.));
#1429=DIRECTION('ref_axis',(-1.,0.,0.));
#1430=DIRECTION('center_axis',(0.,0.,1.));
#1431=DIRECTION('ref_axis',(-1.,0.,0.));
#1432=DIRECTION('',(0.,0.,-1.));
#1433=DIRECTION('center_axis',(0.,0.,1.));
#1434=DIRECTION('ref_axis',(-1.,0.,0.));
#1435=DIRECTION('center_axis',(0.,0.,-1.));
#1436=DIRECTION('ref_axis',(-1.,0.,0.));
#1437=DIRECTION('center_axis',(0.,0.,1.));
#1438=DIRECTION('ref_axis',(-1.,0.,0.));
#1439=DIRECTION('',(0.,0.,-1.));
#1440=DIRECTION('center_axis',(0.,0.,1.));
#1441=DIRECTION('ref_axis',(-1.,0.,0.));
#1442=DIRECTION('center_axis',(1.,0.,0.));
#1443=DIRECTION('ref_axis',(0.,0.,-1.));
#1444=DIRECTION('center_axis',(-1.,0.,0.));
#1445=DIRECTION('ref_axis',(0.,1.,0.));
#1446=DIRECTION('center_axis',(1.,0.,0.));
#1447=DIRECTION('ref_axis',(0.,1.,0.));
#1448=DIRECTION('',(-1.,0.,0.));
#1449=DIRECTION('center_axis',(-1.,0.,0.));
#1450=DIRECTION('ref_axis',(0.,1.,0.));
#1451=DIRECTION('center_axis',(1.,0.,0.));
#1452=DIRECTION('ref_axis',(0.,1.,0.));
#1453=DIRECTION('center_axis',(1.,0.,0.));
#1454=DIRECTION('ref_axis',(0.,1.,0.));
#1455=DIRECTION('',(-1.,0.,0.));
#1456=DIRECTION('center_axis',(-1.,0.,0.));
#1457=DIRECTION('ref_axis',(0.,1.,0.));
#1458=DIRECTION('center_axis',(1.,0.,0.));
#1459=DIRECTION('ref_axis',(0.,1.,0.));
#1460=DIRECTION('center_axis',(0.,0.,1.));
#1461=DIRECTION('ref_axis',(0.,1.,0.));
#1462=DIRECTION('',(0.,-1.,0.));
#1463=DIRECTION('center_axis',(0.,0.,1.));
#1464=DIRECTION('ref_axis',(0.,1.,0.));
#1465=DIRECTION('',(0.,1.,0.));
#1466=DIRECTION('',(1.,0.,0.));
#1467=DIRECTION('center_axis',(0.,-1.,0.));
#1468=DIRECTION('ref_axis',(0.,0.,1.));
#1469=DIRECTION('',(0.,0.,1.));
#1470=DIRECTION('',(-1.,0.,0.));
#1471=DIRECTION('center_axis',(0.,0.,-1.));
#1472=DIRECTION('ref_axis',(0.,-1.,0.));
#1473=DIRECTION('',(0.,-1.,0.));
#1474=DIRECTION('',(-1.,0.,0.));
#1475=DIRECTION('center_axis',(0.,0.999999999999993,-1.17080559714386E-7));
#1476=DIRECTION('ref_axis',(0.,-1.17080559714386E-7,-0.999999999999993));
#1477=DIRECTION('',(0.,-1.17080559714386E-7,-0.999999999999993));
#1478=DIRECTION('',(-1.,0.,0.));
#1479=DIRECTION('center_axis',(0.,0.,1.));
#1480=DIRECTION('ref_axis',(0.,1.,0.));
#1481=DIRECTION('',(0.,1.,0.));
#1482=DIRECTION('center_axis',(1.,0.,0.));
#1483=DIRECTION('ref_axis',(0.,1.,0.));
#1484=DIRECTION('center_axis',(0.,5.12790042061117E-16,1.));
#1485=DIRECTION('ref_axis',(0.,1.,-5.12790042061117E-16));
#1486=DIRECTION('',(0.,1.,-5.12790042061117E-16));
#1487=DIRECTION('',(1.,0.,0.));
#1488=DIRECTION('',(0.,1.,-5.12790042061117E-16));
#1489=DIRECTION('',(-1.,0.,0.));
#1490=DIRECTION('center_axis',(1.,0.,0.));
#1491=DIRECTION('ref_axis',(0.,1.,0.));
#1492=DIRECTION('center_axis',(-1.,0.,0.));
#1493=DIRECTION('ref_axis',(0.,1.,0.));
#1494=DIRECTION('center_axis',(0.,-5.12790042061116E-16,-1.));
#1495=DIRECTION('ref_axis',(0.,-1.,5.12790042061116E-16));
#1496=DIRECTION('',(0.,-1.,5.12790042061116E-16));
#1497=DIRECTION('',(1.,0.,0.));
#1498=DIRECTION('',(0.,-1.,5.12790042061116E-16));
#1499=DIRECTION('',(-1.,0.,0.));
#1500=DIRECTION('center_axis',(1.,0.,0.));
#1501=DIRECTION('ref_axis',(0.,1.,0.));
#1502=DIRECTION('center_axis',(-1.,0.,0.));
#1503=DIRECTION('ref_axis',(0.,1.,0.));
#1504=DIRECTION('center_axis',(0.,-0.866025403784438,0.500000000000001));
#1505=DIRECTION('ref_axis',(0.,0.500000000000001,0.866025403784438));
#1506=DIRECTION('',(0.,0.500000000000001,0.866025403784438));
#1507=DIRECTION('',(1.,0.,0.));
#1508=DIRECTION('',(0.,0.500000000000001,0.866025403784438));
#1509=DIRECTION('',(-1.,0.,0.));
#1510=DIRECTION('center_axis',(1.,0.,0.));
#1511=DIRECTION('ref_axis',(0.,1.,0.));
#1512=DIRECTION('center_axis',(-1.,0.,0.));
#1513=DIRECTION('ref_axis',(0.,1.,0.));
#1514=DIRECTION('center_axis',(0.,0.866025403784439,0.5));
#1515=DIRECTION('ref_axis',(0.,0.5,-0.866025403784439));
#1516=DIRECTION('',(0.,0.5,-0.866025403784439));
#1517=DIRECTION('',(1.,0.,0.));
#1518=DIRECTION('',(0.,0.5,-0.866025403784439));
#1519=DIRECTION('',(-1.,0.,0.));
#1520=DIRECTION('center_axis',(1.,0.,0.));
#1521=DIRECTION('ref_axis',(0.,1.,0.));
#1522=DIRECTION('center_axis',(-1.,0.,0.));
#1523=DIRECTION('ref_axis',(0.,1.,0.));
#1524=DIRECTION('center_axis',(0.,0.866025403784439,-0.5));
#1525=DIRECTION('ref_axis',(0.,-0.5,-0.866025403784439));
#1526=DIRECTION('',(0.,-0.5,-0.866025403784439));
#1527=DIRECTION('',(1.,0.,0.));
#1528=DIRECTION('',(0.,-0.5,-0.866025403784439));
#1529=DIRECTION('',(-1.,0.,0.));
#1530=DIRECTION('center_axis',(1.,0.,0.));
#1531=DIRECTION('ref_axis',(0.,1.,0.));
#1532=DIRECTION('center_axis',(-1.,0.,0.));
#1533=DIRECTION('ref_axis',(0.,1.,0.));
#1534=DIRECTION('center_axis',(0.,-0.866025403784439,-0.499999999999999));
#1535=DIRECTION('ref_axis',(0.,-0.499999999999999,0.866025403784439));
#1536=DIRECTION('',(0.,-0.499999999999999,0.866025403784439));
#1537=DIRECTION('',(1.,0.,0.));
#1538=DIRECTION('',(0.,-0.499999999999999,0.866025403784439));
#1539=DIRECTION('',(-1.,0.,0.));
#1540=DIRECTION('center_axis',(1.,0.,0.));
#1541=DIRECTION('ref_axis',(0.,1.,0.));
#1542=DIRECTION('center_axis',(-1.,0.,0.));
#1543=DIRECTION('ref_axis',(0.,1.,0.));
#1544=DIRECTION('center_axis',(1.,0.,0.));
#1545=DIRECTION('ref_axis',(0.,0.,-1.));
#1546=DIRECTION('center_axis',(-1.,0.,0.));
#1547=DIRECTION('ref_axis',(0.,1.,0.));
#1548=DIRECTION('center_axis',(-1.,0.,0.));
#1549=DIRECTION('ref_axis',(0.,1.,0.));
#1550=DIRECTION('center_axis',(-1.,0.,0.));
#1551=DIRECTION('ref_axis',(0.,1.,0.));
#1552=DIRECTION('center_axis',(-1.,0.,0.));
#1553=DIRECTION('ref_axis',(0.,1.,0.));
#1554=DIRECTION('center_axis',(-1.,0.,0.));
#1555=DIRECTION('ref_axis',(0.,1.,0.));
#1556=DIRECTION('center_axis',(-1.,0.,0.));
#1557=DIRECTION('ref_axis',(0.,1.,0.));
#1558=DIRECTION('center_axis',(-1.,0.,0.));
#1559=DIRECTION('ref_axis',(0.,1.,0.));
#1560=DIRECTION('center_axis',(1.,0.,0.));
#1561=DIRECTION('ref_axis',(0.,1.,0.));
#1562=DIRECTION('center_axis',(-1.,0.,0.));
#1563=DIRECTION('ref_axis',(0.,1.,0.));
#1564=DIRECTION('center_axis',(1.,0.,0.));
#1565=DIRECTION('ref_axis',(0.,1.,0.));
#1566=DIRECTION('',(1.,0.,0.));
#1567=DIRECTION('center_axis',(-1.,0.,0.));
#1568=DIRECTION('ref_axis',(0.,1.,0.));
#1569=DIRECTION('center_axis',(-1.,0.,0.));
#1570=DIRECTION('ref_axis',(0.,1.,0.));
#1571=DIRECTION('',(1.,0.,0.));
#1572=DIRECTION('center_axis',(1.,0.,0.));
#1573=DIRECTION('ref_axis',(0.,0.,-1.));
#1574=DIRECTION('center_axis',(0.,-0.707106781186548,-0.707106781186547));
#1575=DIRECTION('ref_axis',(-1.,0.,0.));
#1576=DIRECTION('',(0.,0.707106781186547,-0.707106781186548));
#1577=DIRECTION('',(1.,0.,0.));
#1578=DIRECTION('',(0.,-0.707106781186547,0.707106781186548));
#1579=DIRECTION('',(-1.,0.,0.));
#1580=DIRECTION('center_axis',(0.,-1.,0.));
#1581=DIRECTION('ref_axis',(0.,0.,1.));
#1582=DIRECTION('',(0.,0.,-1.));
#1583=DIRECTION('',(1.,0.,0.));
#1584=DIRECTION('',(0.,0.,-1.));
#1585=DIRECTION('center_axis',(-1.,0.,0.));
#1586=DIRECTION('ref_axis',(0.,0.,1.));
#1587=DIRECTION('',(0.,1.,0.));
#1588=DIRECTION('',(0.,-0.707106781186548,-0.707106781186547));
#1589=DIRECTION('',(0.,0.,1.));
#1590=DIRECTION('',(0.,0.707106781186547,-0.707106781186548));
#1591=DIRECTION('',(0.,-1.,0.));
#1592=DIRECTION('',(0.,0.707106781186548,0.707106781186547));
#1593=DIRECTION('center_axis',(0.,-0.707106781186547,0.707106781186548));
#1594=DIRECTION('ref_axis',(1.,0.,0.));
#1595=DIRECTION('',(0.,-0.707106781186548,-0.707106781186547));
#1596=DIRECTION('',(-1.,0.,0.));
#1597=DIRECTION('center_axis',(0.,0.,1.));
#1598=DIRECTION('ref_axis',(0.,1.,0.));
#1599=DIRECTION('',(1.,0.,0.));
#1600=DIRECTION('',(0.,-1.,0.));
#1601=DIRECTION('center_axis',(0.,0.707106781186547,-0.707106781186548));
#1602=DIRECTION('ref_axis',(-1.,0.,0.));
#1603=DIRECTION('',(0.,0.707106781186548,0.707106781186547));
#1604=DIRECTION('',(1.,0.,0.));
#1605=DIRECTION('',(-1.,0.,0.));
#1606=DIRECTION('center_axis',(0.,0.,-1.));
#1607=DIRECTION('ref_axis',(0.,-1.,0.));
#1608=DIRECTION('',(0.,1.,0.));
#1609=DIRECTION('center_axis',(0.,0.707106781186548,0.707106781186547));
#1610=DIRECTION('ref_axis',(1.,0.,0.));
#1611=DIRECTION('',(0.,-0.707106781186547,0.707106781186548));
#1612=DIRECTION('',(-1.,0.,0.));
#1613=DIRECTION('center_axis',(0.,1.,0.));
#1614=DIRECTION('ref_axis',(0.,0.,-1.));
#1615=DIRECTION('',(0.,0.,1.));
#1616=DIRECTION('center_axis',(-1.,0.,0.));
#1617=DIRECTION('ref_axis',(0.,0.,1.));
#1618=DIRECTION('center_axis',(0.,0.707106781186547,-0.707106781186548));
#1619=DIRECTION('ref_axis',(-1.,0.,0.));
#1620=DIRECTION('',(0.,-0.707106781186548,-0.707106781186547));
#1621=DIRECTION('',(1.,0.,0.));
#1622=DIRECTION('',(0.,0.707106781186548,0.707106781186547));
#1623=DIRECTION('',(-1.,0.,0.));
#1624=DIRECTION('center_axis',(0.,1.,0.));
#1625=DIRECTION('ref_axis',(-1.,0.,0.));
#1626=DIRECTION('',(0.,0.,1.));
#1627=DIRECTION('',(0.,0.,-1.));
#1628=DIRECTION('',(-1.,0.,0.));
#1629=DIRECTION('',(0.,0.,1.));
#1630=DIRECTION('',(1.,0.,0.));
#1631=DIRECTION('center_axis',(-1.,0.,0.));
#1632=DIRECTION('ref_axis',(0.,1.,0.));
#1633=DIRECTION('',(0.,-1.,0.));
#1634=DIRECTION('',(0.,-0.707106781186548,0.707106781186547));
#1635=DIRECTION('',(0.,0.,1.));
#1636=DIRECTION('',(0.,0.707106781186548,0.707106781186547));
#1637=DIRECTION('',(0.,1.,0.));
#1638=DIRECTION('',(0.,0.707106781186548,-0.707106781186547));
#1639=DIRECTION('center_axis',(0.,-0.707106781186547,-0.707106781186548));
#1640=DIRECTION('ref_axis',(-1.,0.,0.));
#1641=DIRECTION('',(1.,0.,0.));
#1642=DIRECTION('',(0.,0.707106781186548,-0.707106781186547));
#1643=DIRECTION('',(-1.,0.,0.));
#1644=DIRECTION('center_axis',(0.,-1.,0.));
#1645=DIRECTION('ref_axis',(1.,0.,0.));
#1646=DIRECTION('',(0.,0.,-1.));
#1647=DIRECTION('',(-1.,0.,0.));
#1648=DIRECTION('',(0.,0.,-1.));
#1649=DIRECTION('',(1.,0.,0.));
#1650=DIRECTION('center_axis',(0.577350269189625,-0.577350269189626,0.577350269189627));
#1651=DIRECTION('ref_axis',(0.707106781186549,0.,-0.707106781186546));
#1652=DIRECTION('',(0.,0.707106781186548,0.707106781186547));
#1653=DIRECTION('',(-0.707106781186549,-0.707106781186546,0.));
#1654=DIRECTION('',(0.707106781186549,-5.23364152894591E-16,-0.707106781186546));
#1655=DIRECTION('center_axis',(0.707106781186546,-0.707106781186549,0.));
#1656=DIRECTION('ref_axis',(0.,0.,-1.));
#1657=DIRECTION('',(0.707106781186549,0.707106781186546,0.));
#1658=DIRECTION('',(0.,0.,1.));
#1659=DIRECTION('center_axis',(0.577350269189625,0.577350269189626,0.577350269189627));
#1660=DIRECTION('ref_axis',(0.707106781186549,0.,-0.707106781186546));
#1661=DIRECTION('',(-0.707106781186549,0.,0.707106781186546));
#1662=DIRECTION('',(0.707106781186549,-0.707106781186546,0.));
#1663=DIRECTION('',(0.,0.707106781186548,-0.707106781186547));
#1664=DIRECTION('center_axis',(0.707106781186546,0.707106781186549,0.));
#1665=DIRECTION('ref_axis',(0.,0.,-1.));
#1666=DIRECTION('',(-0.707106781186549,0.707106781186546,0.));
#1667=DIRECTION('',(0.,0.,-1.));
#1668=DIRECTION('center_axis',(0.,0.707106781186547,0.707106781186548));
#1669=DIRECTION('ref_axis',(1.,0.,0.));
#1670=DIRECTION('',(1.,0.,0.));
#1671=DIRECTION('center_axis',(0.707106781186546,0.,0.707106781186549));
#1672=DIRECTION('ref_axis',(0.707106781186549,0.,-0.707106781186546));
#1673=DIRECTION('',(0.,-1.,0.));
#1674=DIRECTION('',(0.,1.,0.));
#1675=DIRECTION('center_axis',(0.,-0.707106781186547,0.707106781186548));
#1676=DIRECTION('ref_axis',(1.,0.,0.));
#1677=DIRECTION('',(-1.,0.,0.));
#1678=DIRECTION('center_axis',(1.,0.,0.));
#1679=DIRECTION('ref_axis',(0.,1.,0.));
#1680=DIRECTION('',(0.,-1.,0.));
#1681=DIRECTION('center_axis',(0.,0.,-1.));
#1682=DIRECTION('ref_axis',(-1.,0.,0.));
#1683=DIRECTION('',(0.,1.,0.));
#1684=DIRECTION('center_axis',(-1.,0.,0.));
#1685=DIRECTION('ref_axis',(0.,-1.,0.));
#1686=DIRECTION('',(0.,1.,0.));
#1687=DIRECTION('center_axis',(0.,0.,1.));
#1688=DIRECTION('ref_axis',(1.,0.,0.));
#1689=DIRECTION('center_axis',(0.,0.,1.));
#1690=DIRECTION('ref_axis',(-1.,0.,0.));
#1691=DIRECTION('',(0.,0.,1.));
#1692=DIRECTION('',(1.,0.,0.));
#1693=CARTESIAN_POINT('',(0.,0.,0.));
#1694=CARTESIAN_POINT('',(0.,0.,0.));
#1695=CARTESIAN_POINT('Origin',(0.,-38.5,35.5));
#1696=CARTESIAN_POINT('',(-166.,-37.,37.));
#1697=CARTESIAN_POINT('',(-166.,-40.,34.));
#1698=CARTESIAN_POINT('',(-166.,-37.7499998975545,36.2500001024455));
#1699=CARTESIAN_POINT('',(0.,-40.,34.));
#1700=CARTESIAN_POINT('',(0.,-40.,34.));
#1701=CARTESIAN_POINT('',(0.,-37.,37.));
#1702=CARTESIAN_POINT('',(0.,-37.7499998975545,36.2500001024455));
#1703=CARTESIAN_POINT('',(0.,-37.,37.));
#1704=CARTESIAN_POINT('Origin',(0.,-40.,-30.0000004470348));
#1705=CARTESIAN_POINT('',(-166.,-40.,-25.0000004470348));
#1706=CARTESIAN_POINT('',(-166.,-40.,37.));
#1707=CARTESIAN_POINT('',(0.,-40.,-25.0000004470348));
#1708=CARTESIAN_POINT('',(0.,-40.,-25.0000004470348));
#1709=CARTESIAN_POINT('',(0.,-40.,37.));
#1710=CARTESIAN_POINT('Origin',(-166.,4.09781932830811E-7,0.));
#1711=CARTESIAN_POINT('',(-166.,37.,37.));
#1712=CARTESIAN_POINT('',(-166.,40.,37.));
#1713=CARTESIAN_POINT('',(-166.,40.,34.));
#1714=CARTESIAN_POINT('',(-166.,37.7500001024455,36.2499998975545));
#1715=CARTESIAN_POINT('',(-166.,40.,-25.0000004470348));
#1716=CARTESIAN_POINT('',(-166.,40.,-37.));
#1717=CARTESIAN_POINT('',(-166.,55.0000014049667,-25.0000004470348));
#1718=CARTESIAN_POINT('',(-166.,20.000000204891,-25.0000004470348));
#1719=CARTESIAN_POINT('',(-166.,55.,-37.));
#1720=CARTESIAN_POINT('',(-166.,55.0000008195639,-30.0000004470348));
#1721=CARTESIAN_POINT('',(-166.,-55.,-37.));
#1722=CARTESIAN_POINT('',(-166.,55.,-37.));
#1723=CARTESIAN_POINT('',(-166.,-55.,-25.0000004470348));
#1724=CARTESIAN_POINT('',(-166.,-55.,-37.));
#1725=CARTESIAN_POINT('',(-166.,-27.499999795109,-25.0000004470348));
#1726=CARTESIAN_POINT('Origin',(0.,38.5,35.5));
#1727=CARTESIAN_POINT('',(0.,37.,37.));
#1728=CARTESIAN_POINT('',(0.,37.,37.));
#1729=CARTESIAN_POINT('',(0.,40.,34.));
#1730=CARTESIAN_POINT('',(0.,37.7500001024455,36.2499998975545));
#1731=CARTESIAN_POINT('',(0.,40.,34.));
#1732=CARTESIAN_POINT('Origin',(0.,40.,37.));
#1733=CARTESIAN_POINT('',(0.,40.,-25.0000004470348));
#1734=CARTESIAN_POINT('',(0.,40.,-37.));
#1735=CARTESIAN_POINT('',(0.,40.,-25.0000004470348));
#1736=CARTESIAN_POINT('Origin',(-65.,-47.5000005854028,-27.0000004470348));
#1737=CARTESIAN_POINT('',(-61.5,-47.5000005854028,-25.0000004470348));
#1738=CARTESIAN_POINT('Origin',(-65.,-47.5000005854028,-25.0000004470348));
#1739=CARTESIAN_POINT('',(-61.5,-47.5000005854028,-37.0000004470348));
#1740=CARTESIAN_POINT('',(-61.5,-47.5000005854028,-27.0000004470348));
#1741=CARTESIAN_POINT('Origin',(-65.,-47.5000005854028,-37.));
#1742=CARTESIAN_POINT('Origin',(-65.,47.5000005854028,-27.0000004470348));
#1743=CARTESIAN_POINT('',(-61.5,47.5000005854028,-25.0000004470348));
#1744=CARTESIAN_POINT('Origin',(-65.,47.5000005854028,-25.0000004470348));
#1745=CARTESIAN_POINT('',(-61.5,47.5000005854028,-37.0000004470348));
#1746=CARTESIAN_POINT('',(-61.5,47.5000005854028,-27.0000004470348));
#1747=CARTESIAN_POINT('Origin',(-65.,47.5000005854028,-37.));
#1748=CARTESIAN_POINT('Origin',(-100.,47.5000005854028,-27.0000004470348));
#1749=CARTESIAN_POINT('',(-96.5,47.5000005854028,-25.0000004470348));
#1750=CARTESIAN_POINT('Origin',(-100.,47.5000005854028,-25.0000004470348));
#1751=CARTESIAN_POINT('',(-96.5,47.5000005854028,-37.0000004470348));
#1752=CARTESIAN_POINT('',(-96.5,47.5000005854028,-27.0000004470348));
#1753=CARTESIAN_POINT('Origin',(-100.,47.5000005854028,-37.));
#1754=CARTESIAN_POINT('Origin',(-100.,-47.5000005854028,-27.0000004470348));
#1755=CARTESIAN_POINT('',(-96.5,-47.5000005854028,-25.0000004470348));
#1756=CARTESIAN_POINT('Origin',(-100.,-47.5000005854028,-25.0000004470348));
#1757=CARTESIAN_POINT('',(-96.5,-47.5000005854028,-37.0000004470348));
#1758=CARTESIAN_POINT('',(-96.5,-47.5000005854028,-27.0000004470348));
#1759=CARTESIAN_POINT('Origin',(-100.,-47.5000005854028,-37.));
#1760=CARTESIAN_POINT('Origin',(-30.,-47.5000005854028,-27.0000004470348));
#1761=CARTESIAN_POINT('',(-26.5,-47.5000005854028,-25.0000004470348));
#1762=CARTESIAN_POINT('Origin',(-30.,-47.5000005854028,-25.0000004470348));
#1763=CARTESIAN_POINT('',(-26.5,-47.5000005854028,-37.0000004470348));
#1764=CARTESIAN_POINT('',(-26.5,-47.5000005854028,-27.0000004470348));
#1765=CARTESIAN_POINT('Origin',(-30.,-47.5000005854028,-37.));
#1766=CARTESIAN_POINT('Origin',(-30.,47.5000005854028,-27.0000004470348));
#1767=CARTESIAN_POINT('',(-26.5,47.5000005854028,-25.0000004470348));
#1768=CARTESIAN_POINT('Origin',(-30.,47.5000005854028,-25.0000004470348));
#1769=CARTESIAN_POINT('',(-26.5,47.5000005854028,-37.0000004470348));
#1770=CARTESIAN_POINT('',(-26.5,47.5000005854028,-27.0000004470348));
#1771=CARTESIAN_POINT('Origin',(-30.,47.5000005854028,-37.));
#1772=CARTESIAN_POINT('Origin',(-135.,47.5000005854028,-27.0000004470348));
#1773=CARTESIAN_POINT('',(-131.5,47.5000005854028,-25.0000004470348));
#1774=CARTESIAN_POINT('Origin',(-135.,47.5000005854028,-25.0000004470348));
#1775=CARTESIAN_POINT('',(-131.5,47.5000005854028,-37.0000004470348));
#1776=CARTESIAN_POINT('',(-131.5,47.5000005854028,-27.0000004470348));
#1777=CARTESIAN_POINT('Origin',(-135.,47.5000005854028,-37.));
#1778=CARTESIAN_POINT('Origin',(-135.,-47.5000005854028,-27.0000004470348));
#1779=CARTESIAN_POINT('',(-131.5,-47.5000005854028,-25.0000004470348));
#1780=CARTESIAN_POINT('Origin',(-135.,-47.5000005854028,-25.0000004470348));
#1781=CARTESIAN_POINT('',(-131.5,-47.5000005854028,-37.0000004470348));
#1782=CARTESIAN_POINT('',(-131.5,-47.5000005854028,-27.0000004470348));
#1783=CARTESIAN_POINT('Origin',(-135.,-47.5000005854028,-37.));
#1784=CARTESIAN_POINT('Origin',(77.5,0.,0.));
#1785=CARTESIAN_POINT('',(77.5,-11.,1.34711147906209E-15));
#1786=CARTESIAN_POINT('Origin',(77.5,0.,0.));
#1787=CARTESIAN_POINT('Origin',(38.,0.,0.));
#1788=CARTESIAN_POINT('',(38.,-11.,1.34711147906209E-15));
#1789=CARTESIAN_POINT('',(38.,-11.,-1.34711147906209E-15));
#1790=CARTESIAN_POINT('Origin',(38.,0.,0.));
#1791=CARTESIAN_POINT('Origin',(0.,0.,0.));
#1792=CARTESIAN_POINT('',(38.,-30.,-3.67394039744206E-15));
#1793=CARTESIAN_POINT('Origin',(38.,0.,0.));
#1794=CARTESIAN_POINT('',(0.,-30.,-3.67394039744206E-15));
#1795=CARTESIAN_POINT('',(0.,-30.,-3.67394039744206E-15));
#1796=CARTESIAN_POINT('Origin',(0.,0.,0.));
#1797=CARTESIAN_POINT('Origin',(38.,0.,0.));
#1798=CARTESIAN_POINT('Origin',(0.,-40.,37.));
#1799=CARTESIAN_POINT('',(0.,40.,37.));
#1800=CARTESIAN_POINT('Origin',(0.,-55.,-25.0000004470348));
#1801=CARTESIAN_POINT('',(0.,-55.,-25.0000004470348));
#1802=CARTESIAN_POINT('',(0.,-27.499999795109,-25.0000004470348));
#1803=CARTESIAN_POINT('',(0.,-55.,-25.0000004470348));
#1804=CARTESIAN_POINT('Origin',(0.,-55.,-37.));
#1805=CARTESIAN_POINT('',(0.,-55.,-37.));
#1806=CARTESIAN_POINT('',(0.,-55.,-37.));
#1807=CARTESIAN_POINT('',(0.,-55.,-37.));
#1808=CARTESIAN_POINT('Origin',(0.,55.,-37.));
#1809=CARTESIAN_POINT('',(0.,55.,-37.));
#1810=CARTESIAN_POINT('',(0.,55.,-37.));
#1811=CARTESIAN_POINT('',(0.,55.,-37.));
#1812=CARTESIAN_POINT('Origin',(0.,55.0000008195639,-30.0000004470348));
#1813=CARTESIAN_POINT('',(0.,55.0000014049667,-25.0000004470348));
#1814=CARTESIAN_POINT('',(0.,55.0000008195639,-30.0000004470348));
#1815=CARTESIAN_POINT('',(0.,55.0000014049667,-25.0000004470348));
#1816=CARTESIAN_POINT('Origin',(0.,40.,-25.0000004470348));
#1817=CARTESIAN_POINT('',(0.,20.000000204891,-25.0000004470348));
#1818=CARTESIAN_POINT('Origin',(0.,4.09781932830811E-7,0.));
#1819=CARTESIAN_POINT('Origin',(78.,-7.99999958090484,-15.0000002235174));
#1820=CARTESIAN_POINT('',(78.,-7.99999958090484,-15.0000002235174));
#1821=CARTESIAN_POINT('',(78.,7.99999958090482,-15.0000002235174));
#1822=CARTESIAN_POINT('',(78.,-3.99999979045242,-15.0000002235174));
#1823=CARTESIAN_POINT('',(65.5,-7.99999958090484,-15.0000002235174));
#1824=CARTESIAN_POINT('',(78.,-7.99999958090484,-15.0000002235174));
#1825=CARTESIAN_POINT('',(65.5,7.99999958090482,-15.0000002235174));
#1826=CARTESIAN_POINT('',(65.5,-8.66025416689223,-15.0000002235174));
#1827=CARTESIAN_POINT('',(78.,7.99999958090482,-15.0000002235174));
#1828=CARTESIAN_POINT('Origin',(65.5,-9.99200722162641E-15,-16.0000001117587));
#1829=CARTESIAN_POINT('Origin',(65.5,0.,0.));
#1830=CARTESIAN_POINT('Origin',(78.,7.99999958090485,15.0000002235174));
#1831=CARTESIAN_POINT('',(78.,7.99999958090485,15.0000002235174));
#1832=CARTESIAN_POINT('',(78.,-7.99999958090483,15.0000002235174));
#1833=CARTESIAN_POINT('',(78.,3.99999979045243,15.0000002235174));
#1834=CARTESIAN_POINT('',(65.5,7.99999958090485,15.0000002235174));
#1835=CARTESIAN_POINT('',(78.,7.99999958090485,15.0000002235174));
#1836=CARTESIAN_POINT('',(65.5,-7.99999958090483,15.0000002235174));
#1837=CARTESIAN_POINT('',(65.5,8.66025416689224,15.0000002235174));
#1838=CARTESIAN_POINT('',(78.,-7.99999958090483,15.0000002235174));
#1839=CARTESIAN_POINT('Origin',(65.5,8.88178419700125E-15,16.0000001117587));
#1840=CARTESIAN_POINT('Origin',(65.5,0.,0.));
#1841=CARTESIAN_POINT('Origin',(78.,8.99038145988592,-14.4282029790872));
#1842=CARTESIAN_POINT('',(78.,8.99038145988592,-14.4282029790872));
#1843=CARTESIAN_POINT('',(78.,16.9903810407908,-0.571797244430279));
#1844=CARTESIAN_POINT('',(78.,10.9903813551121,-10.9641015454229));
#1845=CARTESIAN_POINT('',(65.5,8.99038145988592,-14.4282029790872));
#1846=CARTESIAN_POINT('',(78.,8.99038145988592,-14.4282029790872));
#1847=CARTESIAN_POINT('',(65.5,16.9903810407908,-0.571797244430279));
#1848=CARTESIAN_POINT('',(65.5,8.66025416689222,-15.0000002235174));
#1849=CARTESIAN_POINT('',(78.,16.9903810407908,-0.571797244430274));
#1850=CARTESIAN_POINT('Origin',(65.5,12.9903812503383,-7.50000011175872));
#1851=CARTESIAN_POINT('Origin',(65.5,0.,0.));
#1852=CARTESIAN_POINT('Origin',(78.,-16.9903810407908,-0.571797244430257));
#1853=CARTESIAN_POINT('',(78.,-16.9903810407908,-0.571797244430257));
#1854=CARTESIAN_POINT('',(78.,-8.99038145988593,-14.4282029790871));
#1855=CARTESIAN_POINT('',(78.,-14.9903811455646,-4.03589867809448));
#1856=CARTESIAN_POINT('',(65.5,-16.9903810407908,-0.571797244430257));
#1857=CARTESIAN_POINT('',(78.,-16.9903810407908,-0.571797244430254));
#1858=CARTESIAN_POINT('',(65.5,-8.99038145988593,-14.4282029790871));
#1859=CARTESIAN_POINT('',(65.5,-17.3205083337845,5.55111512312578E-15));
#1860=CARTESIAN_POINT('',(78.,-8.99038145988593,-14.4282029790872));
#1861=CARTESIAN_POINT('Origin',(65.5,-12.9903812503383,-7.5000001117587));
#1862=CARTESIAN_POINT('Origin',(65.5,0.,0.));
#1863=CARTESIAN_POINT('Origin',(78.,-8.99038145988592,14.4282029790872));
#1864=CARTESIAN_POINT('',(78.,-8.99038145988592,14.4282029790872));
#1865=CARTESIAN_POINT('',(78.,-16.9903810407908,0.571797244430263));
#1866=CARTESIAN_POINT('',(78.,-10.9903813551121,10.9641015454229));
#1867=CARTESIAN_POINT('',(65.5,-8.99038145988592,14.4282029790872));
#1868=CARTESIAN_POINT('',(78.,-8.99038145988593,14.4282029790872));
#1869=CARTESIAN_POINT('',(65.5,-16.9903810407908,0.571797244430263));
#1870=CARTESIAN_POINT('',(65.5,-8.66025416689222,15.0000002235174));
#1871=CARTESIAN_POINT('',(78.,-16.9903810407908,0.57179724443027));
#1872=CARTESIAN_POINT('Origin',(65.5,-12.9903812503383,7.50000011175871));
#1873=CARTESIAN_POINT('Origin',(65.5,0.,0.));
#1874=CARTESIAN_POINT('Origin',(78.,16.9903810407908,0.571797244430249));
#1875=CARTESIAN_POINT('',(78.,16.9903810407908,0.571797244430249));
#1876=CARTESIAN_POINT('',(78.,8.99038145988594,14.4282029790871));
#1877=CARTESIAN_POINT('',(78.,14.9903811455646,4.03589867809447));
#1878=CARTESIAN_POINT('',(65.5,16.9903810407908,0.571797244430249));
#1879=CARTESIAN_POINT('',(78.,16.9903810407908,0.571797244430244));
#1880=CARTESIAN_POINT('',(65.5,8.99038145988594,14.4282029790871));
#1881=CARTESIAN_POINT('',(65.5,17.3205083337845,-1.33226762955019E-14));
#1882=CARTESIAN_POINT('',(78.,8.99038145988593,14.4282029790871));
#1883=CARTESIAN_POINT('Origin',(65.5,12.9903812503383,7.5000001117587));
#1884=CARTESIAN_POINT('Origin',(65.5,0.,0.));
#1885=CARTESIAN_POINT('Origin',(78.,0.,0.));
#1886=CARTESIAN_POINT('Origin',(78.,0.,0.));
#1887=CARTESIAN_POINT('Origin',(78.,0.,0.));
#1888=CARTESIAN_POINT('Origin',(78.,0.,0.));
#1889=CARTESIAN_POINT('Origin',(78.,0.,0.));
#1890=CARTESIAN_POINT('',(78.,-17.,2.0818995585505E-15));
#1891=CARTESIAN_POINT('Origin',(78.,0.,0.));
#1892=CARTESIAN_POINT('Origin',(78.,0.,0.));
#1893=CARTESIAN_POINT('Origin',(78.,0.,0.));
#1894=CARTESIAN_POINT('',(78.,-11.,-1.34711147906209E-15));
#1895=CARTESIAN_POINT('Origin',(78.,0.,0.));
#1896=CARTESIAN_POINT('Origin',(78.,0.,0.));
#1897=CARTESIAN_POINT('',(58.,-11.,-1.34711147906209E-15));
#1898=CARTESIAN_POINT('Origin',(58.,0.,0.));
#1899=CARTESIAN_POINT('',(78.,-11.,1.34711147906209E-15));
#1900=CARTESIAN_POINT('Origin',(78.,0.,0.));
#1901=CARTESIAN_POINT('',(58.,-17.,2.0818995585505E-15));
#1902=CARTESIAN_POINT('Origin',(58.,0.,0.));
#1903=CARTESIAN_POINT('',(78.,-17.,2.0818995585505E-15));
#1904=CARTESIAN_POINT('Origin',(58.,0.,0.));
#1905=CARTESIAN_POINT('Origin',(-166.,-39.75,-29.7500004470348));
#1906=CARTESIAN_POINT('',(-194.,-41.,-28.5000004470348));
#1907=CARTESIAN_POINT('',(-194.,-38.5,-31.0000004470348));
#1908=CARTESIAN_POINT('',(-194.,-38.1250000558794,-31.3750003911555));
#1909=CARTESIAN_POINT('',(-166.,-38.5,-31.0000004470348));
#1910=CARTESIAN_POINT('',(-166.,-38.5,-31.0000004470348));
#1911=CARTESIAN_POINT('',(-166.,-41.,-28.5000004470348));
#1912=CARTESIAN_POINT('',(-166.,-38.1250000558794,-31.3750003911555));
#1913=CARTESIAN_POINT('',(-166.,-41.,-28.5000004470348));
#1914=CARTESIAN_POINT('Origin',(-166.,-41.,-30.0000004470348));
#1915=CARTESIAN_POINT('',(-166.,-41.,35.5));
#1916=CARTESIAN_POINT('',(-166.,-41.,-13.2500003352761));
#1917=CARTESIAN_POINT('',(-194.,-41.,35.5));
#1918=CARTESIAN_POINT('',(-166.,-41.,35.5));
#1919=CARTESIAN_POINT('',(-194.,-41.,-13.2500003352761));
#1920=CARTESIAN_POINT('Origin',(-166.,0.,3.49999977648258));
#1921=CARTESIAN_POINT('',(-166.,38.5,-31.0000004470348));
#1922=CARTESIAN_POINT('',(-166.,20.,-31.0000004470348));
#1923=CARTESIAN_POINT('',(-166.,41.,-28.5000004470348));
#1924=CARTESIAN_POINT('',(-166.,38.1250000558793,-31.3750003911555));
#1925=CARTESIAN_POINT('',(-166.,41.,35.5));
#1926=CARTESIAN_POINT('',(-166.,41.,20.2499998882413));
#1927=CARTESIAN_POINT('',(-166.,38.5,38.));
#1928=CARTESIAN_POINT('',(-166.,38.1250000558794,38.3749999441206));
#1929=CARTESIAN_POINT('',(-166.,-38.5,38.));
#1930=CARTESIAN_POINT('',(-166.,-20.,38.));
#1931=CARTESIAN_POINT('',(-166.,-38.1250000558793,38.3749999441207));
#1932=CARTESIAN_POINT('Origin',(-166.,-39.75,36.75));
#1933=CARTESIAN_POINT('',(-194.,-38.5,38.));
#1934=CARTESIAN_POINT('',(-194.,-38.1250000558793,38.3749999441207));
#1935=CARTESIAN_POINT('',(-166.,-38.5,38.));
#1936=CARTESIAN_POINT('Origin',(-166.,-40.,38.));
#1937=CARTESIAN_POINT('',(-194.,38.5,38.));
#1938=CARTESIAN_POINT('',(-166.,38.5,38.));
#1939=CARTESIAN_POINT('',(-194.,-20.,38.));
#1940=CARTESIAN_POINT('Origin',(-166.,39.75,-29.7500004470348));
#1941=CARTESIAN_POINT('',(-194.,38.5,-31.0000004470348));
#1942=CARTESIAN_POINT('',(-194.,41.,-28.5000004470348));
#1943=CARTESIAN_POINT('',(-194.,38.1250000558793,-31.3750003911555));
#1944=CARTESIAN_POINT('',(-166.,41.,-28.5000004470348));
#1945=CARTESIAN_POINT('',(-166.,38.5,-31.0000004470348));
#1946=CARTESIAN_POINT('Origin',(-166.,40.,-31.0000004470348));
#1947=CARTESIAN_POINT('',(-194.,20.,-31.0000004470348));
#1948=CARTESIAN_POINT('Origin',(-166.,39.75,36.75));
#1949=CARTESIAN_POINT('',(-194.,41.,35.5));
#1950=CARTESIAN_POINT('',(-194.,38.1250000558794,38.3749999441206));
#1951=CARTESIAN_POINT('',(-166.,41.,35.5));
#1952=CARTESIAN_POINT('Origin',(-166.,41.,37.));
#1953=CARTESIAN_POINT('',(-194.,41.,20.2499998882413));
#1954=CARTESIAN_POINT('Origin',(-194.,0.,3.49999977648258));
#1955=CARTESIAN_POINT('Origin',(-141.,13.5,43.5));
#1956=CARTESIAN_POINT('',(-181.,12.,42.));
#1957=CARTESIAN_POINT('',(-181.,15.,45.));
#1958=CARTESIAN_POINT('',(-181.,9.75,39.75));
#1959=CARTESIAN_POINT('',(-156.,15.,45.));
#1960=CARTESIAN_POINT('',(-141.,15.,45.));
#1961=CARTESIAN_POINT('',(-156.,12.,42.));
#1962=CARTESIAN_POINT('',(-156.,13.5,43.5));
#1963=CARTESIAN_POINT('',(-141.,12.,42.));
#1964=CARTESIAN_POINT('Origin',(-116.,15.,37.));
#1965=CARTESIAN_POINT('',(-156.,15.,37.));
#1966=CARTESIAN_POINT('',(-156.,15.,37.));
#1967=CARTESIAN_POINT('',(-181.,15.,59.));
#1968=CARTESIAN_POINT('',(-181.,15.,49.5));
#1969=CARTESIAN_POINT('',(-119.,15.,59.));
#1970=CARTESIAN_POINT('',(-126.,15.,59.));
#1971=CARTESIAN_POINT('',(-119.,15.,37.));
#1972=CARTESIAN_POINT('',(-119.,15.,37.));
#1973=CARTESIAN_POINT('',(-126.,15.,37.));
#1974=CARTESIAN_POINT('Origin',(-181.,-20.,62.));
#1975=CARTESIAN_POINT('',(-181.,-12.,42.));
#1976=CARTESIAN_POINT('',(-181.,-10.,42.));
#1977=CARTESIAN_POINT('',(-181.,-15.,45.));
#1978=CARTESIAN_POINT('',(-181.,-19.75,49.75));
#1979=CARTESIAN_POINT('',(-181.,-15.,59.));
#1980=CARTESIAN_POINT('',(-181.,-15.,49.5));
#1981=CARTESIAN_POINT('',(-181.,-12.,62.));
#1982=CARTESIAN_POINT('',(-181.,-14.75,59.25));
#1983=CARTESIAN_POINT('',(-181.,12.,62.));
#1984=CARTESIAN_POINT('',(-181.,-10.,62.));
#1985=CARTESIAN_POINT('',(-181.,4.75,69.25));
#1986=CARTESIAN_POINT('Origin',(-161.,-13.5,43.5));
#1987=CARTESIAN_POINT('',(-156.,-12.,42.));
#1988=CARTESIAN_POINT('',(-161.,-12.,42.));
#1989=CARTESIAN_POINT('',(-156.,-15.,45.));
#1990=CARTESIAN_POINT('',(-156.,-3.5,33.5));
#1991=CARTESIAN_POINT('',(-161.,-15.,45.));
#1992=CARTESIAN_POINT('Origin',(-156.,-15.,37.));
#1993=CARTESIAN_POINT('',(-156.,-15.,37.));
#1994=CARTESIAN_POINT('',(-156.,-15.,37.));
#1995=CARTESIAN_POINT('',(-119.,-15.,37.));
#1996=CARTESIAN_POINT('',(-146.,-15.,37.));
#1997=CARTESIAN_POINT('',(-119.,-15.,59.));
#1998=CARTESIAN_POINT('',(-119.,-15.,37.));
#1999=CARTESIAN_POINT('',(-146.,-15.,59.));
#2000=CARTESIAN_POINT('Origin',(-116.,-12.,59.));
#2001=CARTESIAN_POINT('',(-119.,-12.,62.));
#2002=CARTESIAN_POINT('',(-119.,-15.,59.));
#2003=CARTESIAN_POINT('',(-116.,-12.,59.));
#2004=CARTESIAN_POINT('',(-116.,-12.,59.));
#2005=CARTESIAN_POINT('',(-119.,-12.,62.));
#2006=CARTESIAN_POINT('Origin',(-117.5,-13.5,37.));
#2007=CARTESIAN_POINT('',(-116.,-12.,37.));
#2008=CARTESIAN_POINT('',(-118.75,-14.75,37.));
#2009=CARTESIAN_POINT('',(-116.,-12.,37.));
#2010=CARTESIAN_POINT('Origin',(-119.,15.,59.));
#2011=CARTESIAN_POINT('',(-116.,12.,59.));
#2012=CARTESIAN_POINT('',(-119.,12.,62.));
#2013=CARTESIAN_POINT('',(-116.,12.,59.));
#2014=CARTESIAN_POINT('',(-119.,15.,59.));
#2015=CARTESIAN_POINT('',(-119.,12.,62.));
#2016=CARTESIAN_POINT('Origin',(-117.5,13.5,37.));
#2017=CARTESIAN_POINT('',(-116.,12.,37.));
#2018=CARTESIAN_POINT('',(-118.75,14.75,37.));
#2019=CARTESIAN_POINT('',(-116.,12.,37.));
#2020=CARTESIAN_POINT('Origin',(-126.,13.5,60.5));
#2021=CARTESIAN_POINT('',(-126.,12.,62.));
#2022=CARTESIAN_POINT('Origin',(-117.5,-10.,60.5));
#2023=CARTESIAN_POINT('',(-119.,-10.,62.));
#2024=CARTESIAN_POINT('',(-116.,-10.,59.));
#2025=CARTESIAN_POINT('Origin',(-146.,-13.5,60.5));
#2026=CARTESIAN_POINT('',(-146.,-12.,62.));
#2027=CARTESIAN_POINT('Origin',(-116.,-20.,37.));
#2028=CARTESIAN_POINT('',(-116.,20.,37.));
#2029=CARTESIAN_POINT('Origin',(-166.,0.,42.));
#2030=CARTESIAN_POINT('',(-156.,10.,42.));
#2031=CARTESIAN_POINT('Origin',(-156.,20.,37.));
#2032=CARTESIAN_POINT('',(-156.,-20.,37.));
#2033=CARTESIAN_POINT('Origin',(-136.,0.,62.));
#2034=CARTESIAN_POINT('Origin',(-136.,0.,37.));
#2035=CARTESIAN_POINT('',(0.,0.,0.));
#2036=UNCERTAINTY_MEASURE_WITH_UNIT(LENGTH_MEASURE(0.01),#2042,
'DISTANCE_ACCURACY_VALUE',
'Maximum model space distance between geometric entities at asserted c
onnectivities');
#2037=UNCERTAINTY_MEASURE_WITH_UNIT(LENGTH_MEASURE(0.01),#2042,
'DISTANCE_ACCURACY_VALUE',
'Maximum model space distance between geometric entities at asserted c
onnectivities');
#2038=UNCERTAINTY_MEASURE_WITH_UNIT(LENGTH_MEASURE(0.01),#2042,
'DISTANCE_ACCURACY_VALUE',
'Maximum model space distance between geometric entities at asserted c
onnectivities');
#2039=(
GEOMETRIC_REPRESENTATION_CONTEXT(3)
GLOBAL_UNCERTAINTY_ASSIGNED_CONTEXT((#2036))
GLOBAL_UNIT_ASSIGNED_CONTEXT((#2042,#2044,#2045))
REPRESENTATION_CONTEXT('','3D')
);
#2040=(
GEOMETRIC_REPRESENTATION_CONTEXT(3)
GLOBAL_UNCERTAINTY_ASSIGNED_CONTEXT((#2037))
GLOBAL_UNIT_ASSIGNED_CONTEXT((#2042,#2044,#2045))
REPRESENTATION_CONTEXT('','3D')
);
#2041=(
GEOMETRIC_REPRESENTATION_CONTEXT(3)
GLOBAL_UNCERTAINTY_ASSIGNED_CONTEXT((#2038))
GLOBAL_UNIT_ASSIGNED_CONTEXT((#2042,#2044,#2045))
REPRESENTATION_CONTEXT('','3D')
);
#2042=(
LENGTH_UNIT()
NAMED_UNIT(*)
SI_UNIT(.MILLI.,.METRE.)
);
#2043=(
LENGTH_UNIT()
NAMED_UNIT(*)
SI_UNIT($,.METRE.)
);
#2044=(
NAMED_UNIT(*)
PLANE_ANGLE_UNIT()
SI_UNIT($,.RADIAN.)
);
#2045=(
NAMED_UNIT(*)
SI_UNIT($,.STERADIAN.)
SOLID_ANGLE_UNIT()
);
#2046=SHAPE_DEFINITION_REPRESENTATION(#2048,#2051);
#2047=SHAPE_DEFINITION_REPRESENTATION(#2049,#2052);
#2048=PRODUCT_DEFINITION_SHAPE('',$,#2054);
#2049=PRODUCT_DEFINITION_SHAPE('',$,#2055);
#2050=PRODUCT_DEFINITION_SHAPE($,$,#14);
#2051=SHAPE_REPRESENTATION('',(#1246,#1351),#2039);
#2052=SHAPE_REPRESENTATION('',(#1247),#2040);
#2053=PRODUCT_DEFINITION_CONTEXT('part definition',#2061,'design');
#2054=PRODUCT_DEFINITION('HTNC 2200W AIR COOLED',
'HTNC 2200W AIR COOLED',#2056,#2053);
#2055=PRODUCT_DEFINITION('HTNC 2200W SQUARE ER20 SPINDLE',
'HTNC 2200W SQUARE ER20 SPINDLE',#2057,#2053);
#2056=PRODUCT_DEFINITION_FORMATION('',$,#2063);
#2057=PRODUCT_DEFINITION_FORMATION('',$,#2064);
#2058=PRODUCT_RELATED_PRODUCT_CATEGORY('HTNC 2200W AIR COOLED',
'HTNC 2200W AIR COOLED',(#2063));
#2059=PRODUCT_RELATED_PRODUCT_CATEGORY('HTNC 2200W SQUARE ER20 SPINDLE',
'HTNC 2200W SQUARE ER20 SPINDLE',(#2064));
#2060=APPLICATION_PROTOCOL_DEFINITION('international standard',
'automotive_design',2009,#2061);
#2061=APPLICATION_CONTEXT(
'Core Data for Automotive Mechanical Design Process');
#2062=PRODUCT_CONTEXT('part definition',#2061,'mechanical');
#2063=PRODUCT('HTNC 2200W AIR COOLED','HTNC 2200W AIR COOLED',$,(#2062));
#2064=PRODUCT('HTNC 2200W SQUARE ER20 SPINDLE',
'HTNC 2200W SQUARE ER20 SPINDLE',$,(#2062));
#2065=PRESENTATION_STYLE_ASSIGNMENT((#2068));
#2066=PRESENTATION_STYLE_ASSIGNMENT((#2069));
#2067=PRESENTATION_STYLE_ASSIGNMENT((#2070));
#2068=SURFACE_STYLE_USAGE(.BOTH.,#2071);
#2069=SURFACE_STYLE_USAGE(.BOTH.,#2072);
#2070=SURFACE_STYLE_USAGE(.BOTH.,#2073);
#2071=SURFACE_SIDE_STYLE('',(#2074));
#2072=SURFACE_SIDE_STYLE('',(#2075));
#2073=SURFACE_SIDE_STYLE('',(#2076));
#2074=SURFACE_STYLE_FILL_AREA(#2077);
#2075=SURFACE_STYLE_FILL_AREA(#2078);
#2076=SURFACE_STYLE_FILL_AREA(#2079);
#2077=FILL_AREA_STYLE('Steel - Satin',(#2080));
#2078=FILL_AREA_STYLE('Aluminum - Satin',(#2081));
#2079=FILL_AREA_STYLE('Nylon 12 (with Formlabs Fuse 1 3D Printer)',(#2082));
#2080=FILL_AREA_STYLE_COLOUR('Steel - Satin',#2083);
#2081=FILL_AREA_STYLE_COLOUR('Aluminum - Satin',#2084);
#2082=FILL_AREA_STYLE_COLOUR(
'Nylon 12 (with Formlabs Fuse 1 3D Printer)',#2085);
#2083=COLOUR_RGB('Steel - Satin',0.627450980392157,0.627450980392157,0.627450980392157);
#2084=COLOUR_RGB('Aluminum - Satin',0.96078431372549,0.96078431372549,0.964705882352941);
#2085=COLOUR_RGB('Nylon 12 (with Formlabs Fuse 1 3D Printer)',0.247058823529412,
0.247058823529412,0.247058823529412);
ENDSEC;
END-ISO-10303-21;
